<svg xmlns="http://www.w3.org/2000/svg" viewBox="0 0 133 82" width="133" height="82" shape-rendering="crispEdges">
<path fill="#551f07" d="M49 0h1v1h-1zM53 0h2v1h-2zM42 1h2v1h-2zM46 1h2v1h-2zM57 1h1v1h-1zM41 2h1v1h-1zM60 2h2v1h-2zM62 3h1v1h-1zM38 4h1v1h-1zM35 5h2v1h-2zM34 6h1v1h-1zM65 6h1v1h-1zM34 8h1v1h-1zM32 9h2v1h-2zM68 9h1v1h-1zM31 10h1v1h-1zM31 11h1v1h-1zM32 12h1v1h-1zM69 12h1v1h-1zM31 13h1v1h-1zM70 13h2v1h-2zM30 14h1v1h-1zM46 14h1v1h-1zM71 14h1v1h-1zM30 15h1v1h-1zM42 15h1v1h-1zM46 15h1v1h-1zM70 15h1v1h-1zM43 16h2v1h-2zM71 16h1v1h-1zM43 17h2v1h-2zM57 18h1v1h-1zM72 18h1v1h-1zM26 19h2v1h-2zM37 19h1v1h-1zM59 19h1v1h-1zM72 19h1v1h-1zM25 20h1v1h-1zM71 20h1v1h-1zM25 21h1v1h-1zM63 21h1v1h-1zM72 21h1v1h-1zM24 22h1v1h-1zM73 22h2v1h-2zM23 23h1v1h-1zM63 23h1v1h-1zM74 23h1v1h-1zM38 24h1v1h-1zM62 24h1v1h-1zM73 24h1v1h-1zM22 25h1v1h-1zM38 25h1v1h-1zM62 25h1v1h-1zM21 26h1v1h-1zM38 26h1v1h-1zM62 26h1v1h-1zM86 26h3v1h-3zM22 27h1v1h-1zM61 27h1v1h-1zM94 27h1v1h-1zM60 28h2v1h-2zM81 28h1v1h-1zM39 29h1v1h-1zM60 29h2v1h-2zM77 29h1v1h-1zM22 30h2v1h-2zM39 30h1v1h-1zM59 30h1v1h-1zM98 30h1v1h-1zM39 31h1v1h-1zM59 31h2v1h-2zM101 31h1v1h-1zM39 32h1v1h-1zM58 32h2v1h-2zM104 32h1v1h-1zM39 33h1v1h-1zM58 33h1v1h-1zM20 34h1v1h-1zM39 34h2v1h-2zM57 34h2v1h-2zM19 35h1v1h-1zM40 35h1v1h-1zM53 35h1v1h-1zM56 35h2v1h-2zM19 36h1v1h-1zM40 36h2v1h-2zM55 36h3v1h-3zM19 37h1v1h-1zM40 37h2v1h-2zM55 37h2v1h-2zM19 38h1v1h-1zM40 38h3v1h-3zM53 38h3v1h-3zM20 39h1v1h-1zM41 39h1v1h-1zM54 39h2v1h-2zM20 40h1v1h-1zM41 40h1v1h-1zM50 40h1v1h-1zM54 40h1v1h-1zM110 40h1v1h-1zM19 41h1v1h-1zM41 41h1v1h-1zM54 41h1v1h-1zM54 42h1v1h-1zM111 42h1v1h-1zM18 43h1v1h-1zM41 43h1v1h-1zM111 43h1v1h-1zM18 44h1v1h-1zM112 44h1v1h-1zM18 45h1v1h-1zM41 45h1v1h-1zM112 45h1v1h-1zM18 46h1v1h-1zM41 46h1v1h-1zM112 46h1v1h-1zM19 47h1v1h-1zM41 47h1v1h-1zM112 47h1v1h-1zM41 48h1v1h-1zM112 48h1v1h-1zM20 49h1v1h-1zM112 49h1v1h-1zM20 50h1v1h-1zM114 50h2v1h-2zM118 51h1v1h-1zM35 52h1v1h-1zM37 52h2v1h-2zM120 52h1v1h-1zM121 53h2v1h-2zM15 54h1v1h-1zM33 54h1v1h-1zM71 54h1v1h-1zM74 54h1v1h-1zM123 54h1v1h-1zM57 55h1v1h-1zM70 55h1v1h-1zM72 55h2v1h-2zM89 55h1v1h-1zM122 55h1v1h-1zM15 56h1v1h-1zM59 56h1v1h-1zM123 56h1v1h-1zM13 57h2v1h-2zM61 57h1v1h-1zM67 57h2v1h-2zM91 57h4v1h-4zM125 57h2v1h-2zM12 58h1v1h-1zM113 58h1v1h-1zM12 59h1v1h-1zM128 59h2v1h-2zM129 60h1v1h-1zM8 61h1v1h-1zM130 61h1v1h-1zM6 62h1v1h-1zM112 63h1v1h-1zM130 63h1v1h-1zM4 64h1v1h-1zM85 64h1v1h-1zM111 64h1v1h-1zM131 64h1v1h-1zM82 65h2v1h-2zM85 65h1v1h-1zM89 65h1v1h-1zM110 65h1v1h-1zM131 65h1v1h-1zM3 66h1v1h-1zM81 66h1v1h-1zM109 66h1v1h-1zM131 66h1v1h-1zM2 67h1v1h-1zM79 67h1v1h-1zM105 67h1v1h-1zM109 67h1v1h-1zM131 67h1v1h-1zM78 68h1v1h-1zM100 68h1v1h-1zM110 68h1v1h-1zM0 69h1v1h-1zM34 69h1v1h-1zM79 69h1v1h-1zM112 69h3v1h-3zM0 70h1v1h-1zM33 70h1v1h-1zM30 71h1v1h-1zM123 71h2v1h-2zM0 72h1v1h-1zM23 72h1v1h-1zM32 72h1v1h-1zM72 72h7v1h-7zM119 72h3v1h-3zM0 73h1v1h-1zM23 73h1v1h-1zM70 73h1v1h-1zM31 74h1v1h-1zM64 74h5v1h-5zM11 75h1v1h-1zM32 75h1v1h-1zM60 75h4v1h-4zM34 76h1v1h-1zM39 76h1v1h-1zM54 76h1v1h-1zM38 78h1v1h-1zM52 78h1v1h-1zM40 79h1v1h-1zM50 79h1v1h-1z"/>
<path fill="#602409" d="M50 0h3v1h-3zM44 1h2v1h-2zM55 1h2v1h-2zM58 2h2v1h-2zM63 4h1v1h-1zM64 5h1v1h-1zM65 7h2v1h-2zM66 8h2v1h-2zM67 10h1v1h-1zM68 11h1v1h-1zM38 15h1v1h-1zM38 16h1v1h-1zM29 17h1v1h-1zM28 18h1v1h-1zM37 18h1v1h-1zM64 19h1v1h-1zM64 20h1v1h-1zM63 22h1v1h-1zM72 22h1v1h-1zM22 24h2v1h-2zM74 24h1v1h-1zM73 25h1v1h-1zM22 26h1v1h-1zM39 26h1v1h-1zM61 26h1v1h-1zM74 26h1v1h-1zM38 27h1v1h-1zM75 27h1v1h-1zM81 27h4v1h-4zM89 27h5v1h-5zM23 28h2v1h-2zM38 28h1v1h-1zM75 28h1v1h-1zM80 28h1v1h-1zM82 28h3v1h-3zM89 28h7v1h-7zM23 29h1v1h-1zM76 29h1v1h-1zM78 29h2v1h-2zM95 29h2v1h-2zM49 30h1v1h-1zM60 30h1v1h-1zM97 30h1v1h-1zM40 31h1v1h-1zM99 31h2v1h-2zM21 32h1v1h-1zM41 32h1v1h-1zM44 32h1v1h-1zM77 32h1v1h-1zM102 32h2v1h-2zM21 33h1v1h-1zM40 33h1v1h-1zM57 33h1v1h-1zM77 33h1v1h-1zM105 33h1v1h-1zM55 34h1v1h-1zM106 34h1v1h-1zM20 35h1v1h-1zM106 35h2v1h-2zM54 37h1v1h-1zM108 37h1v1h-1zM21 38h1v1h-1zM56 38h1v1h-1zM109 38h1v1h-1zM40 39h1v1h-1zM43 39h1v1h-1zM52 39h1v1h-1zM110 39h1v1h-1zM44 40h5v1h-5zM51 40h1v1h-1zM55 40h1v1h-1zM46 41h4v1h-4zM110 41h1v1h-1zM18 42h2v1h-2zM41 42h2v1h-2zM77 42h1v1h-1zM110 42h1v1h-1zM42 43h1v1h-1zM53 43h1v1h-1zM41 44h2v1h-2zM53 44h1v1h-1zM78 44h1v1h-1zM53 45h1v1h-1zM78 45h1v1h-1zM52 47h1v1h-1zM40 48h1v1h-1zM52 48h1v1h-1zM40 49h1v1h-1zM52 49h1v1h-1zM24 50h1v1h-1zM39 50h1v1h-1zM77 50h1v1h-1zM112 50h2v1h-2zM116 50h1v1h-1zM26 51h1v1h-1zM38 51h2v1h-2zM53 51h1v1h-1zM76 51h1v1h-1zM111 51h1v1h-1zM117 51h1v1h-1zM19 52h1v1h-1zM26 52h2v1h-2zM31 52h1v1h-1zM36 52h1v1h-1zM54 52h1v1h-1zM16 53h3v1h-3zM30 53h2v1h-2zM34 53h3v1h-3zM54 53h1v1h-1zM75 53h1v1h-1zM120 53h1v1h-1zM32 54h1v1h-1zM55 54h1v1h-1zM58 54h1v1h-1zM112 54h1v1h-1zM90 55h1v1h-1zM65 56h2v1h-2zM69 56h2v1h-2zM75 56h1v1h-1zM90 56h2v1h-2zM94 56h2v1h-2zM62 57h4v1h-4zM90 57h1v1h-1zM95 57h2v1h-2zM89 58h1v1h-1zM91 58h1v1h-1zM11 59h1v1h-1zM13 59h1v1h-1zM89 59h1v1h-1zM113 59h1v1h-1zM9 60h2v1h-2zM88 60h1v1h-1zM113 60h1v1h-1zM130 60h1v1h-1zM7 61h1v1h-1zM9 61h1v1h-1zM50 61h6v1h-6zM113 61h1v1h-1zM113 62h1v1h-1zM129 62h2v1h-2zM5 63h1v1h-1zM45 63h1v1h-1zM77 63h1v1h-1zM35 64h1v1h-1zM78 64h1v1h-1zM84 64h1v1h-1zM4 65h1v1h-1zM79 65h3v1h-3zM37 66h1v1h-1zM79 66h2v1h-2zM86 66h1v1h-1zM106 66h1v1h-1zM108 66h1v1h-1zM37 67h3v1h-3zM78 67h1v1h-1zM1 68h1v1h-1zM35 68h1v1h-1zM77 68h1v1h-1zM1 69h1v1h-1zM27 70h1v1h-1zM127 70h1v1h-1zM26 71h2v1h-2zM25 72h1v1h-1zM31 73h1v1h-1zM32 74h1v1h-1zM5 75h1v1h-1zM18 75h1v1h-1zM34 75h1v1h-1zM33 76h1v1h-1zM53 77h1v1h-1zM44 78h1v1h-1z"/>
<path fill="#944517" d="M48 1h1v1h-1zM65 8h1v1h-1zM66 10h1v1h-1zM46 11h2v1h-2zM33 12h1v1h-1zM45 12h1v1h-1zM57 13h1v1h-1zM31 15h1v1h-1zM56 16h1v1h-1zM64 17h1v1h-1zM29 18h1v1h-1zM36 18h1v1h-1zM38 18h1v1h-1zM61 19h1v1h-1zM65 19h1v1h-1zM62 21h1v1h-1zM25 22h1v1h-1zM62 22h1v1h-1zM39 24h1v1h-1zM61 25h1v1h-1zM60 26h1v1h-1zM73 26h1v1h-1zM37 27h1v1h-1zM47 28h1v1h-1zM62 28h1v1h-1zM47 29h1v1h-1zM80 29h1v1h-1zM76 30h1v1h-1zM61 31h1v1h-1zM38 32h1v1h-1zM46 32h1v1h-1zM38 33h1v1h-1zM51 33h1v1h-1zM104 33h1v1h-1zM41 34h1v1h-1zM42 35h1v1h-1zM58 36h1v1h-1zM52 37h2v1h-2zM39 38h1v1h-1zM52 38h1v1h-1zM44 39h1v1h-1zM56 39h1v1h-1zM78 39h1v1h-1zM75 40h1v1h-1zM109 40h1v1h-1zM55 41h1v1h-1zM77 41h1v1h-1zM79 41h1v1h-1zM44 42h1v1h-1zM79 42h1v1h-1zM86 42h1v1h-1zM39 43h1v1h-1zM50 43h1v1h-1zM86 43h1v1h-1zM40 44h1v1h-1zM43 44h1v1h-1zM79 44h1v1h-1zM85 44h1v1h-1zM111 44h1v1h-1zM43 45h1v1h-1zM74 45h1v1h-1zM79 45h1v1h-1zM85 45h1v1h-1zM20 46h1v1h-1zM24 46h2v1h-2zM78 46h2v1h-2zM85 46h1v1h-1zM103 46h2v1h-2zM108 46h1v1h-1zM20 47h1v1h-1zM24 47h2v1h-2zM42 47h1v1h-1zM78 47h2v1h-2zM108 47h2v1h-2zM21 48h1v1h-1zM42 48h1v1h-1zM78 48h2v1h-2zM85 48h3v1h-3zM106 48h2v1h-2zM110 48h1v1h-1zM22 49h1v1h-1zM75 49h1v1h-1zM78 49h2v1h-2zM85 49h1v1h-1zM87 49h1v1h-1zM111 49h1v1h-1zM30 50h1v1h-1zM41 50h1v1h-1zM52 50h1v1h-1zM79 50h1v1h-1zM85 50h1v1h-1zM110 50h1v1h-1zM24 51h1v1h-1zM27 51h1v1h-1zM31 51h1v1h-1zM34 51h1v1h-1zM36 51h1v1h-1zM40 51h1v1h-1zM52 51h1v1h-1zM78 51h1v1h-1zM85 51h1v1h-1zM112 51h1v1h-1zM25 52h1v1h-1zM28 52h1v1h-1zM32 52h1v1h-1zM39 52h1v1h-1zM58 52h1v1h-1zM67 52h1v1h-1zM71 52h2v1h-2zM78 52h1v1h-1zM85 52h1v1h-1zM110 52h1v1h-1zM38 53h1v1h-1zM53 53h1v1h-1zM55 53h1v1h-1zM58 53h1v1h-1zM67 53h1v1h-1zM72 53h1v1h-1zM74 53h1v1h-1zM78 53h1v1h-1zM84 53h2v1h-2zM112 53h1v1h-1zM119 53h1v1h-1zM28 54h1v1h-1zM31 54h1v1h-1zM36 54h1v1h-1zM67 54h1v1h-1zM70 54h1v1h-1zM72 54h1v1h-1zM78 54h1v1h-1zM84 54h3v1h-3zM94 54h1v1h-1zM113 54h1v1h-1zM31 55h3v1h-3zM65 55h1v1h-1zM69 55h1v1h-1zM78 55h1v1h-1zM84 55h2v1h-2zM95 55h1v1h-1zM56 56h1v1h-1zM61 56h1v1h-1zM67 56h1v1h-1zM71 56h4v1h-4zM78 56h1v1h-1zM96 56h1v1h-1zM99 56h2v1h-2zM15 57h1v1h-1zM70 57h1v1h-1zM74 57h1v1h-1zM78 57h2v1h-2zM82 57h1v1h-1zM84 57h1v1h-1zM87 57h1v1h-1zM98 57h1v1h-1zM102 57h2v1h-2zM61 58h3v1h-3zM65 58h1v1h-1zM67 58h2v1h-2zM79 58h1v1h-1zM82 58h2v1h-2zM86 58h2v1h-2zM98 58h1v1h-1zM101 58h1v1h-1zM63 59h3v1h-3zM76 59h1v1h-1zM83 59h1v1h-1zM85 59h1v1h-1zM90 59h1v1h-1zM51 60h3v1h-3zM56 60h2v1h-2zM77 60h1v1h-1zM79 60h2v1h-2zM10 61h1v1h-1zM59 61h1v1h-1zM111 61h1v1h-1zM114 61h1v1h-1zM128 61h2v1h-2zM47 62h1v1h-1zM76 62h1v1h-1zM82 62h2v1h-2zM111 62h1v1h-1zM114 62h1v1h-1zM33 63h1v1h-1zM47 63h1v1h-1zM33 64h1v1h-1zM36 64h1v1h-1zM106 64h1v1h-1zM113 64h1v1h-1zM5 65h1v1h-1zM33 65h2v1h-2zM38 65h1v1h-1zM107 65h1v1h-1zM33 66h2v1h-2zM78 66h1v1h-1zM88 66h1v1h-1zM102 66h1v1h-1zM105 66h1v1h-1zM3 67h1v1h-1zM27 67h1v1h-1zM76 67h2v1h-2zM93 67h1v1h-1zM95 67h1v1h-1zM101 67h1v1h-1zM33 68h1v1h-1zM76 68h1v1h-1zM91 68h2v1h-2zM115 68h1v1h-1zM125 68h1v1h-1zM28 69h1v1h-1zM30 69h1v1h-1zM33 69h1v1h-1zM119 69h2v1h-2zM124 69h1v1h-1zM128 69h1v1h-1zM29 70h1v1h-1zM70 70h1v1h-1zM123 70h1v1h-1zM2 71h1v1h-1zM70 71h1v1h-1zM72 71h2v1h-2zM77 71h1v1h-1zM122 71h1v1h-1zM12 72h1v1h-1zM58 72h1v1h-1zM22 73h1v1h-1zM59 73h1v1h-1zM62 73h1v1h-1zM5 74h1v1h-1zM18 74h1v1h-1zM20 74h2v1h-2zM54 74h1v1h-1zM63 74h1v1h-1zM7 75h1v1h-1zM10 75h1v1h-1zM56 76h1v1h-1zM46 79h3v1h-3z"/>
<path fill="#c06522" d="M49 1h1v1h-1zM40 4h1v1h-1zM63 5h1v1h-1zM36 7h1v1h-1zM32 11h1v1h-1zM58 11h1v1h-1zM59 12h1v1h-1zM64 14h1v1h-1zM65 15h1v1h-1zM39 16h1v1h-1zM55 16h1v1h-1zM39 17h1v1h-1zM56 19h1v1h-1zM66 19h1v1h-1zM38 20h1v1h-1zM65 22h1v1h-1zM26 24h1v1h-1zM57 24h1v1h-1zM31 26h2v1h-2zM53 26h1v1h-1zM29 27h1v1h-1zM31 27h1v1h-1zM36 27h1v1h-1zM46 27h1v1h-1zM25 28h1v1h-1zM29 28h1v1h-1zM63 28h1v1h-1zM51 29h1v1h-1zM81 29h1v1h-1zM24 30h1v1h-1zM78 30h1v1h-1zM55 32h1v1h-1zM61 32h1v1h-1zM66 32h1v1h-1zM78 32h1v1h-1zM26 34h1v1h-1zM73 34h1v1h-1zM79 34h1v1h-1zM26 35h1v1h-1zM66 35h1v1h-1zM79 35h1v1h-1zM22 36h1v1h-1zM59 36h1v1h-1zM65 36h1v1h-1zM31 37h1v1h-1zM38 37h1v1h-1zM69 37h1v1h-1zM35 38h1v1h-1zM69 38h1v1h-1zM73 38h1v1h-1zM107 38h1v1h-1zM69 39h1v1h-1zM75 39h1v1h-1zM39 40h1v1h-1zM82 40h2v1h-2zM108 40h1v1h-1zM39 41h1v1h-1zM56 41h1v1h-1zM63 41h1v1h-1zM82 41h2v1h-2zM106 41h1v1h-1zM29 42h1v1h-1zM33 42h1v1h-1zM71 42h1v1h-1zM106 42h1v1h-1zM21 43h1v1h-1zM25 43h1v1h-1zM32 43h1v1h-1zM64 43h1v1h-1zM73 43h1v1h-1zM21 44h1v1h-1zM24 44h1v1h-1zM33 44h1v1h-1zM38 44h1v1h-1zM57 44h1v1h-1zM72 44h1v1h-1zM105 44h1v1h-1zM46 45h1v1h-1zM62 45h1v1h-1zM67 45h1v1h-1zM69 45h1v1h-1zM77 45h1v1h-1zM106 45h1v1h-1zM35 46h1v1h-1zM45 46h1v1h-1zM49 46h1v1h-1zM64 46h1v1h-1zM70 46h1v1h-1zM21 47h1v1h-1zM48 47h1v1h-1zM87 47h1v1h-1zM34 48h1v1h-1zM34 49h1v1h-1zM46 49h2v1h-2zM58 49h1v1h-1zM46 50h1v1h-1zM50 50h1v1h-1zM68 50h1v1h-1zM42 51h1v1h-1zM62 51h2v1h-2zM23 52h1v1h-1zM51 52h1v1h-1zM56 52h1v1h-1zM62 52h2v1h-2zM70 52h1v1h-1zM74 52h1v1h-1zM114 52h1v1h-1zM116 52h1v1h-1zM19 53h1v1h-1zM56 53h1v1h-1zM73 53h1v1h-1zM97 53h2v1h-2zM17 54h1v1h-1zM26 54h1v1h-1zM39 54h1v1h-1zM52 54h1v1h-1zM60 54h1v1h-1zM99 54h1v1h-1zM27 55h1v1h-1zM92 55h1v1h-1zM118 55h1v1h-1zM29 56h1v1h-1zM98 56h1v1h-1zM37 57h1v1h-1zM53 57h1v1h-1zM73 57h1v1h-1zM105 57h1v1h-1zM30 58h1v1h-1zM55 58h1v1h-1zM58 58h1v1h-1zM71 58h1v1h-1zM75 58h1v1h-1zM126 58h1v1h-1zM30 59h1v1h-1zM33 59h1v1h-1zM59 59h2v1h-2zM68 59h1v1h-1zM106 59h1v1h-1zM30 60h2v1h-2zM39 60h1v1h-1zM48 60h1v1h-1zM61 60h6v1h-6zM104 60h1v1h-1zM116 60h1v1h-1zM116 61h1v1h-1zM36 63h1v1h-1zM42 63h1v1h-1zM77 64h1v1h-1zM94 64h1v1h-1zM103 64h1v1h-1zM105 64h1v1h-1zM108 64h1v1h-1zM28 65h1v1h-1zM39 65h1v1h-1zM73 65h2v1h-2zM113 65h1v1h-1zM118 65h1v1h-1zM32 66h1v1h-1zM73 66h1v1h-1zM118 66h1v1h-1zM121 66h1v1h-1zM125 66h1v1h-1zM30 67h1v1h-1zM32 67h1v1h-1zM92 67h1v1h-1zM110 67h1v1h-1zM115 67h1v1h-1zM32 68h1v1h-1zM68 68h2v1h-2zM119 68h1v1h-1zM57 69h1v1h-1zM59 70h1v1h-1zM78 70h1v1h-1zM19 71h1v1h-1zM25 71h1v1h-1zM33 71h1v1h-1zM59 71h2v1h-2zM65 71h2v1h-2zM119 71h1v1h-1zM35 72h1v1h-1zM5 73h1v1h-1zM40 73h1v1h-1zM53 73h1v1h-1zM10 74h1v1h-1zM39 74h1v1h-1zM53 74h1v1h-1zM35 77h1v1h-1zM42 78h1v1h-1zM48 78h1v1h-1z"/>
<path fill="#dc8538" d="M50 1h1v1h-1zM60 3h1v1h-1zM61 4h1v1h-1zM39 8h2v1h-2zM52 9h1v1h-1zM44 10h1v1h-1zM63 11h3v1h-3zM66 12h1v1h-1zM65 13h1v1h-1zM51 14h1v1h-1zM63 14h1v1h-1zM69 14h1v1h-1zM35 15h1v1h-1zM53 15h1v1h-1zM63 15h1v1h-1zM40 16h1v1h-1zM69 16h1v1h-1zM66 17h1v1h-1zM69 18h1v1h-1zM29 19h1v1h-1zM34 19h1v1h-1zM34 20h1v1h-1zM34 21h1v1h-1zM29 22h1v1h-1zM40 24h1v1h-1zM65 24h1v1h-1zM68 24h1v1h-1zM67 25h1v1h-1zM57 26h1v1h-1zM70 26h1v1h-1zM27 27h1v1h-1zM35 27h1v1h-1zM35 28h1v1h-1zM44 28h1v1h-1zM30 29h1v1h-1zM52 29h1v1h-1zM63 30h1v1h-1zM80 30h2v1h-2zM53 31h1v1h-1zM65 31h1v1h-1zM81 31h1v1h-1zM83 31h2v1h-2zM54 32h1v1h-1zM83 32h1v1h-1zM98 32h1v1h-1zM24 33h1v1h-1zM32 33h1v1h-1zM67 33h1v1h-1zM83 33h3v1h-3zM88 33h1v1h-1zM92 33h1v1h-1zM100 33h1v1h-1zM22 34h2v1h-2zM67 34h1v1h-1zM85 34h2v1h-2zM102 34h1v1h-1zM95 35h3v1h-3zM99 35h1v1h-1zM20 36h1v1h-1zM36 36h1v1h-1zM60 36h1v1h-1zM99 36h1v1h-1zM104 36h1v1h-1zM37 37h1v1h-1zM71 37h1v1h-1zM105 37h1v1h-1zM26 38h1v1h-1zM37 38h1v1h-1zM62 38h1v1h-1zM70 38h2v1h-2zM22 39h1v1h-1zM26 39h1v1h-1zM58 39h1v1h-1zM102 39h1v1h-1zM26 40h1v1h-1zM36 40h1v1h-1zM58 40h1v1h-1zM101 40h1v1h-1zM22 41h1v1h-1zM58 41h1v1h-1zM74 41h1v1h-1zM96 41h1v1h-1zM21 42h1v1h-1zM23 42h1v1h-1zM73 42h1v1h-1zM57 43h1v1h-1zM74 43h1v1h-1zM36 44h2v1h-2zM76 45h1v1h-1zM34 46h1v1h-1zM57 46h1v1h-1zM88 46h1v1h-1zM100 46h1v1h-1zM63 47h1v1h-1zM72 47h1v1h-1zM102 47h1v1h-1zM45 48h1v1h-1zM64 48h1v1h-1zM63 49h1v1h-1zM89 50h1v1h-1zM64 51h1v1h-1zM96 51h1v1h-1zM64 52h1v1h-1zM108 52h1v1h-1zM24 54h1v1h-1zM96 54h1v1h-1zM102 54h2v1h-2zM119 54h1v1h-1zM39 55h1v1h-1zM105 55h1v1h-1zM25 56h1v1h-1zM47 56h1v1h-1zM52 56h1v1h-1zM111 56h1v1h-1zM18 57h1v1h-1zM37 58h1v1h-1zM118 58h1v1h-1zM125 58h1v1h-1zM50 59h1v1h-1zM91 59h1v1h-1zM72 60h1v1h-1zM89 60h1v1h-1zM100 60h1v1h-1zM112 60h1v1h-1zM27 61h1v1h-1zM66 61h2v1h-2zM73 61h1v1h-1zM21 62h1v1h-1zM90 62h1v1h-1zM105 62h1v1h-1zM121 62h1v1h-1zM127 62h1v1h-1zM65 63h1v1h-1zM71 63h1v1h-1zM108 63h1v1h-1zM116 63h1v1h-1zM124 63h1v1h-1zM18 64h1v1h-1zM129 64h1v1h-1zM24 65h1v1h-1zM53 65h4v1h-4zM66 65h2v1h-2zM72 65h1v1h-1zM100 65h1v1h-1zM124 65h1v1h-1zM21 66h1v1h-1zM53 66h4v1h-4zM92 66h1v1h-1zM124 66h1v1h-1zM54 67h4v1h-4zM73 67h1v1h-1zM97 67h1v1h-1zM111 67h2v1h-2zM24 68h1v1h-1zM26 68h1v1h-1zM117 68h1v1h-1zM3 69h1v1h-1zM8 69h1v1h-1zM26 69h1v1h-1zM72 69h1v1h-1zM2 70h1v1h-1zM53 70h1v1h-1zM22 71h1v1h-1zM64 71h1v1h-1zM67 71h1v1h-1zM5 72h1v1h-1zM63 72h1v1h-1zM10 73h1v1h-1zM7 74h1v1h-1zM16 74h1v1h-1zM52 74h1v1h-1zM51 75h1v1h-1zM35 76h1v1h-1z"/>
<path fill="#f4ae62" d="M51 1h1v1h-1zM51 2h1v1h-1zM42 4h1v1h-1zM50 4h1v1h-1zM45 5h1v1h-1zM52 5h1v1h-1zM54 5h2v1h-2zM61 5h1v1h-1zM50 6h1v1h-1zM53 6h1v1h-1zM58 6h4v1h-4zM36 9h1v1h-1zM34 10h1v1h-1zM40 10h1v1h-1zM58 10h2v1h-2zM43 11h1v1h-1zM61 11h1v1h-1zM62 12h1v1h-1zM60 14h1v1h-1zM62 15h1v1h-1zM62 16h1v1h-1zM68 17h1v1h-1zM32 18h1v1h-1zM42 18h1v1h-1zM47 18h1v1h-1zM33 19h1v1h-1zM44 20h1v1h-1zM68 20h1v1h-1zM30 21h1v1h-1zM43 21h1v1h-1zM59 21h2v1h-2zM31 22h1v1h-1zM42 22h1v1h-1zM30 23h1v1h-1zM34 23h1v1h-1zM44 24h1v1h-1zM70 24h1v1h-1zM40 25h1v1h-1zM54 26h1v1h-1zM33 27h1v1h-1zM41 27h2v1h-2zM54 27h3v1h-3zM34 28h1v1h-1zM55 28h3v1h-3zM66 28h1v1h-1zM31 29h1v1h-1zM56 29h1v1h-1zM64 30h1v1h-1zM90 30h2v1h-2zM35 31h1v1h-1zM93 31h2v1h-2zM33 32h1v1h-1zM35 32h1v1h-1zM68 32h1v1h-1zM27 33h1v1h-1zM32 34h1v1h-1zM62 34h1v1h-1zM62 35h1v1h-1zM62 36h1v1h-1zM95 37h2v1h-2zM60 38h1v1h-1zM61 39h1v1h-1zM60 40h1v1h-1zM73 41h1v1h-1zM93 41h1v1h-1zM66 42h1v1h-1zM91 42h1v1h-1zM93 42h1v1h-1zM60 43h2v1h-2zM89 43h1v1h-1zM91 43h1v1h-1zM93 43h1v1h-1zM60 44h1v1h-1zM89 44h2v1h-2zM86 45h1v1h-1zM98 47h1v1h-1zM89 48h1v1h-1zM96 48h1v1h-1zM70 49h1v1h-1zM88 49h1v1h-1zM91 50h1v1h-1zM104 50h1v1h-1zM91 51h1v1h-1zM101 51h1v1h-1zM105 51h4v1h-4zM103 52h1v1h-1zM47 53h1v1h-1zM47 54h1v1h-1zM21 55h2v1h-2zM18 56h1v1h-1zM109 56h2v1h-2zM44 57h1v1h-1zM119 57h3v1h-3zM22 58h1v1h-1zM42 58h2v1h-2zM37 59h1v1h-1zM109 59h1v1h-1zM14 60h1v1h-1zM95 60h1v1h-1zM122 60h1v1h-1zM16 61h4v1h-4zM40 61h2v1h-2zM71 61h2v1h-2zM96 61h2v1h-2zM123 61h2v1h-2zM15 62h1v1h-1zM40 62h1v1h-1zM51 62h1v1h-1zM72 62h1v1h-1zM88 62h1v1h-1zM97 62h3v1h-3zM125 62h1v1h-1zM8 63h3v1h-3zM55 63h4v1h-4zM93 63h1v1h-1zM99 63h2v1h-2zM46 64h1v1h-1zM50 64h1v1h-1zM59 64h1v1h-1zM99 64h1v1h-1zM127 64h1v1h-1zM11 65h1v1h-1zM47 65h1v1h-1zM61 65h2v1h-2zM64 65h1v1h-1zM71 65h1v1h-1zM91 65h1v1h-1zM98 65h1v1h-1zM123 65h1v1h-1zM10 66h1v1h-1zM63 66h1v1h-1zM65 66h1v1h-1zM97 66h1v1h-1zM123 66h1v1h-1zM4 67h1v1h-1zM13 67h1v1h-1zM44 67h1v1h-1zM64 67h1v1h-1zM14 68h2v1h-2zM42 68h1v1h-1zM73 68h1v1h-1zM2 69h1v1h-1zM16 69h2v1h-2zM44 69h2v1h-2zM74 69h1v1h-1zM11 70h1v1h-1zM17 70h1v1h-1zM67 70h2v1h-2zM3 71h1v1h-1zM5 71h1v1h-1zM10 71h1v1h-1zM21 71h1v1h-1zM40 71h1v1h-1zM16 72h1v1h-1zM8 73h2v1h-2zM38 73h1v1h-1zM43 74h1v1h-1zM36 75h1v1h-1zM47 76h3v1h-3z"/>
<path fill="#f7b66e" d="M52 1h2v1h-2zM52 2h1v1h-1zM49 3h1v1h-1zM52 3h1v1h-1zM43 4h6v1h-6zM52 4h1v1h-1zM49 5h1v1h-1zM53 5h1v1h-1zM58 5h3v1h-3zM44 6h1v1h-1zM55 6h3v1h-3zM43 7h1v1h-1zM41 9h1v1h-1zM60 9h1v1h-1zM35 10h1v1h-1zM57 10h1v1h-1zM61 14h1v1h-1zM33 15h2v1h-2zM67 16h1v1h-1zM48 18h1v1h-1zM68 18h1v1h-1zM52 19h1v1h-1zM68 19h1v1h-1zM31 20h1v1h-1zM53 20h1v1h-1zM69 21h1v1h-1zM69 22h1v1h-1zM44 23h1v1h-1zM55 23h1v1h-1zM56 24h1v1h-1zM44 25h1v1h-1zM54 25h1v1h-1zM56 25h1v1h-1zM66 25h1v1h-1zM41 26h3v1h-3zM55 26h2v1h-2zM34 27h1v1h-1zM67 27h1v1h-1zM68 28h1v1h-1zM33 29h1v1h-1zM57 29h1v1h-1zM30 30h1v1h-1zM32 30h1v1h-1zM89 30h1v1h-1zM63 32h1v1h-1zM34 33h1v1h-1zM63 33h1v1h-1zM34 34h1v1h-1zM44 34h1v1h-1zM63 34h1v1h-1zM27 35h1v1h-1zM45 35h1v1h-1zM50 35h1v1h-1zM63 35h1v1h-1zM46 36h1v1h-1zM48 36h3v1h-3zM49 37h1v1h-1zM91 37h1v1h-1zM97 37h1v1h-1zM94 38h1v1h-1zM60 39h1v1h-1zM93 39h1v1h-1zM61 40h1v1h-1zM67 40h1v1h-1zM92 40h1v1h-1zM91 41h2v1h-2zM61 42h1v1h-1zM90 42h1v1h-1zM87 43h2v1h-2zM90 43h1v1h-1zM94 43h1v1h-1zM87 44h1v1h-1zM94 44h1v1h-1zM89 45h1v1h-1zM94 45h2v1h-2zM89 46h1v1h-1zM95 46h1v1h-1zM89 47h1v1h-1zM96 47h2v1h-2zM97 48h3v1h-3zM98 49h3v1h-3zM100 50h1v1h-1zM103 50h1v1h-1zM102 51h3v1h-3zM106 54h3v1h-3zM45 55h1v1h-1zM108 55h2v1h-2zM19 56h2v1h-2zM20 57h4v1h-4zM45 57h1v1h-1zM111 57h1v1h-1zM19 58h1v1h-1zM21 58h1v1h-1zM16 59h3v1h-3zM17 60h1v1h-1zM41 60h1v1h-1zM92 60h3v1h-3zM109 60h1v1h-1zM11 61h2v1h-2zM93 61h3v1h-3zM52 62h6v1h-6zM73 62h1v1h-1zM92 62h3v1h-3zM14 63h1v1h-1zM59 63h3v1h-3zM68 63h2v1h-2zM74 63h1v1h-1zM91 63h2v1h-2zM97 63h2v1h-2zM126 63h1v1h-1zM10 64h3v1h-3zM47 64h2v1h-2zM60 64h3v1h-3zM69 64h2v1h-2zM92 64h1v1h-1zM98 64h1v1h-1zM8 65h3v1h-3zM44 65h3v1h-3zM63 65h1v1h-1zM70 65h1v1h-1zM90 65h1v1h-1zM96 65h2v1h-2zM127 65h1v1h-1zM6 66h1v1h-1zM9 66h1v1h-1zM45 66h2v1h-2zM64 66h1v1h-1zM71 66h1v1h-1zM8 67h5v1h-5zM19 67h1v1h-1zM41 67h3v1h-3zM72 67h1v1h-1zM19 68h2v1h-2zM65 68h2v1h-2zM12 69h1v1h-1zM15 69h1v1h-1zM20 69h2v1h-2zM36 69h1v1h-1zM43 69h1v1h-1zM66 69h2v1h-2zM16 70h1v1h-1zM21 70h1v1h-1zM36 70h1v1h-1zM45 70h3v1h-3zM55 70h1v1h-1zM16 71h2v1h-2zM44 71h6v1h-6zM55 71h2v1h-2zM4 72h1v1h-1zM9 72h1v1h-1zM42 72h4v1h-4zM48 72h3v1h-3zM57 72h1v1h-1zM14 73h1v1h-1zM41 73h1v1h-1zM43 73h2v1h-2zM50 73h1v1h-1zM37 74h1v1h-1zM50 74h1v1h-1zM42 75h1v1h-1z"/>
<path fill="#ca7129" d="M54 1h1v1h-1zM64 7h1v1h-1zM38 10h2v1h-2zM49 10h4v1h-4zM65 10h1v1h-1zM33 11h2v1h-2zM37 11h1v1h-1zM39 11h1v1h-1zM45 11h1v1h-1zM51 11h2v1h-2zM57 11h1v1h-1zM67 12h1v1h-1zM36 13h1v1h-1zM41 13h1v1h-1zM47 15h1v1h-1zM35 16h1v1h-1zM54 16h1v1h-1zM61 16h1v1h-1zM35 17h1v1h-1zM70 17h1v1h-1zM35 18h1v1h-1zM35 19h1v1h-1zM55 19h1v1h-1zM62 19h1v1h-1zM66 20h1v1h-1zM70 20h1v1h-1zM70 21h1v1h-1zM45 22h1v1h-1zM28 23h1v1h-1zM65 23h1v1h-1zM71 24h1v1h-1zM24 25h1v1h-1zM64 26h1v1h-1zM45 28h1v1h-1zM52 28h1v1h-1zM73 28h1v1h-1zM25 29h1v1h-1zM28 29h1v1h-1zM36 29h1v1h-1zM63 29h1v1h-1zM36 30h1v1h-1zM43 30h1v1h-1zM62 30h1v1h-1zM72 30h1v1h-1zM95 30h1v1h-1zM36 31h1v1h-1zM52 31h1v1h-1zM72 31h1v1h-1zM27 32h1v1h-1zM36 32h1v1h-1zM72 32h1v1h-1zM22 33h1v1h-1zM36 33h1v1h-1zM75 33h1v1h-1zM103 33h1v1h-1zM21 34h1v1h-1zM30 34h1v1h-1zM80 34h1v1h-1zM103 34h1v1h-1zM23 35h1v1h-1zM90 35h3v1h-3zM25 36h1v1h-1zM70 36h1v1h-1zM87 36h1v1h-1zM26 37h2v1h-2zM73 37h1v1h-1zM81 37h1v1h-1zM38 38h1v1h-1zM74 38h1v1h-1zM38 39h1v1h-1zM73 39h1v1h-1zM76 39h1v1h-1zM105 39h1v1h-1zM24 40h1v1h-1zM37 40h1v1h-1zM23 41h1v1h-1zM70 41h1v1h-1zM99 41h3v1h-3zM108 41h1v1h-1zM37 42h1v1h-1zM58 42h1v1h-1zM72 42h1v1h-1zM103 42h1v1h-1zM108 42h1v1h-1zM22 43h1v1h-1zM28 43h1v1h-1zM71 43h1v1h-1zM31 44h1v1h-1zM21 45h1v1h-1zM30 45h1v1h-1zM63 45h1v1h-1zM22 46h1v1h-1zM26 46h1v1h-1zM29 46h1v1h-1zM60 46h1v1h-1zM62 46h1v1h-1zM101 46h1v1h-1zM26 47h1v1h-1zM28 47h1v1h-1zM34 47h1v1h-1zM37 47h2v1h-2zM54 47h1v1h-1zM56 47h1v1h-1zM59 47h1v1h-1zM64 47h1v1h-1zM71 47h1v1h-1zM103 47h1v1h-1zM44 48h1v1h-1zM49 48h1v1h-1zM70 48h1v1h-1zM104 48h1v1h-1zM28 49h1v1h-1zM33 50h1v1h-1zM69 50h1v1h-1zM107 50h1v1h-1zM45 51h1v1h-1zM56 51h1v1h-1zM74 51h1v1h-1zM90 51h1v1h-1zM110 51h1v1h-1zM22 52h1v1h-1zM59 52h1v1h-1zM69 52h1v1h-1zM87 52h2v1h-2zM97 52h1v1h-1zM69 53h1v1h-1zM116 53h1v1h-1zM118 53h1v1h-1zM100 54h2v1h-2zM42 55h2v1h-2zM93 55h1v1h-1zM111 55h2v1h-2zM48 56h1v1h-1zM16 57h1v1h-1zM33 57h2v1h-2zM47 57h1v1h-1zM50 57h1v1h-1zM112 57h1v1h-1zM116 57h1v1h-1zM14 58h2v1h-2zM56 58h1v1h-1zM29 59h1v1h-1zM75 59h1v1h-1zM38 60h1v1h-1zM46 60h1v1h-1zM76 60h1v1h-1zM39 61h1v1h-1zM88 61h1v1h-1zM105 61h1v1h-1zM24 62h1v1h-1zM36 62h1v1h-1zM61 62h1v1h-1zM87 62h1v1h-1zM116 62h1v1h-1zM24 63h1v1h-1zM27 63h1v1h-1zM95 63h1v1h-1zM24 64h2v1h-2zM31 64h1v1h-1zM102 64h1v1h-1zM128 64h1v1h-1zM6 65h1v1h-1zM25 65h1v1h-1zM87 65h1v1h-1zM101 65h1v1h-1zM121 65h1v1h-1zM76 66h1v1h-1zM100 66h1v1h-1zM128 66h1v1h-1zM120 67h1v1h-1zM128 67h1v1h-1zM126 68h1v1h-1zM68 69h1v1h-1zM7 70h2v1h-2zM64 70h1v1h-1zM6 71h1v1h-1zM34 73h1v1h-1zM40 74h1v1h-1zM45 74h1v1h-1zM55 74h1v1h-1zM57 74h1v1h-1zM38 75h1v1h-1zM44 75h1v1h-1zM52 75h1v1h-1zM55 75h2v1h-2zM43 76h1v1h-1z"/>
<path fill="#b1571d" d="M42 2h1v1h-1zM37 6h1v1h-1zM47 12h3v1h-3zM55 13h1v1h-1zM57 14h1v1h-1zM45 17h1v1h-1zM36 20h1v1h-1zM36 22h1v1h-1zM36 23h1v1h-1zM60 25h1v1h-1zM37 32h1v1h-1zM71 32h1v1h-1zM48 33h1v1h-1zM78 33h1v1h-1zM75 34h1v1h-1zM78 34h1v1h-1zM104 34h1v1h-1zM70 35h1v1h-1zM105 35h1v1h-1zM30 36h1v1h-1zM42 36h1v1h-1zM69 36h1v1h-1zM79 36h1v1h-1zM30 37h1v1h-1zM43 37h1v1h-1zM75 37h1v1h-1zM89 37h1v1h-1zM76 38h1v1h-1zM29 39h1v1h-1zM47 39h1v1h-1zM67 39h2v1h-2zM80 39h1v1h-1zM29 40h1v1h-1zM69 40h1v1h-1zM74 40h1v1h-1zM29 41h1v1h-1zM80 41h2v1h-2zM27 42h1v1h-1zM55 42h1v1h-1zM81 42h1v1h-1zM84 42h1v1h-1zM33 43h1v1h-1zM72 43h1v1h-1zM81 43h1v1h-1zM110 43h1v1h-1zM32 44h1v1h-1zM45 44h2v1h-2zM54 44h1v1h-1zM67 44h1v1h-1zM81 44h1v1h-1zM101 44h3v1h-3zM24 45h1v1h-1zM32 45h1v1h-1zM45 45h1v1h-1zM101 45h1v1h-1zM104 45h2v1h-2zM107 45h1v1h-1zM39 46h1v1h-1zM48 46h1v1h-1zM65 46h1v1h-1zM83 46h2v1h-2zM106 46h1v1h-1zM110 46h2v1h-2zM35 47h1v1h-1zM43 47h1v1h-1zM55 47h1v1h-1zM81 47h4v1h-4zM29 48h1v1h-1zM55 48h1v1h-1zM81 48h3v1h-3zM38 49h1v1h-1zM51 49h1v1h-1zM59 49h1v1h-1zM71 49h1v1h-1zM82 49h1v1h-1zM37 50h1v1h-1zM29 51h1v1h-1zM81 51h1v1h-1zM83 51h1v1h-1zM114 51h1v1h-1zM20 52h1v1h-1zM40 52h1v1h-1zM80 52h3v1h-3zM89 52h1v1h-1zM113 52h1v1h-1zM25 53h1v1h-1zM39 53h1v1h-1zM68 53h1v1h-1zM80 53h3v1h-3zM93 53h1v1h-1zM114 53h1v1h-1zM50 54h1v1h-1zM61 54h1v1h-1zM80 54h1v1h-1zM98 54h1v1h-1zM35 55h1v1h-1zM37 55h1v1h-1zM31 56h3v1h-3zM36 56h2v1h-2zM49 56h2v1h-2zM81 56h1v1h-1zM103 56h1v1h-1zM35 57h2v1h-2zM48 57h1v1h-1zM54 57h1v1h-1zM13 58h1v1h-1zM34 58h1v1h-1zM48 58h1v1h-1zM47 59h1v1h-1zM54 59h1v1h-1zM56 59h2v1h-2zM67 59h1v1h-1zM103 59h2v1h-2zM32 60h1v1h-1zM58 60h1v1h-1zM115 60h1v1h-1zM31 61h1v1h-1zM46 61h1v1h-1zM48 61h2v1h-2zM45 62h1v1h-1zM109 64h1v1h-1zM130 64h1v1h-1zM26 65h1v1h-1zM32 65h1v1h-1zM87 66h1v1h-1zM93 66h1v1h-1zM28 67h2v1h-2zM125 67h1v1h-1zM29 68h1v1h-1zM70 69h1v1h-1zM3 70h1v1h-1zM69 70h1v1h-1zM122 70h1v1h-1zM126 70h1v1h-1zM59 72h1v1h-1zM67 72h1v1h-1zM18 73h1v1h-1zM54 73h1v1h-1zM64 73h1v1h-1zM62 74h1v1h-1zM52 76h1v1h-1z"/>
<path fill="#b55b1e" d="M43 2h1v1h-1zM56 2h1v1h-1zM47 10h1v1h-1zM38 11h1v1h-1zM46 12h1v1h-1zM54 12h1v1h-1zM56 12h1v1h-1zM47 13h1v1h-1zM54 13h1v1h-1zM69 13h1v1h-1zM36 14h1v1h-1zM31 16h1v1h-1zM65 16h1v1h-1zM38 19h1v1h-1zM70 19h1v1h-1zM59 20h1v1h-1zM62 20h1v1h-1zM65 21h1v1h-1zM71 22h1v1h-1zM36 24h1v1h-1zM26 25h1v1h-1zM36 25h1v1h-1zM23 26h1v1h-1zM36 26h1v1h-1zM58 26h1v1h-1zM58 27h1v1h-1zM70 31h2v1h-2zM76 32h1v1h-1zM101 32h1v1h-1zM37 33h1v1h-1zM60 33h1v1h-1zM71 33h1v1h-1zM73 33h2v1h-2zM71 34h1v1h-1zM23 36h1v1h-1zM38 36h1v1h-1zM79 37h1v1h-1zM20 38h1v1h-1zM31 38h1v1h-1zM44 38h1v1h-1zM87 38h1v1h-1zM45 39h2v1h-2zM108 39h1v1h-1zM30 40h1v1h-1zM85 40h1v1h-1zM27 41h2v1h-2zM38 41h1v1h-1zM69 41h1v1h-1zM82 42h1v1h-1zM107 42h1v1h-1zM109 42h1v1h-1zM38 43h1v1h-1zM62 43h1v1h-1zM67 43h2v1h-2zM82 43h1v1h-1zM107 43h2v1h-2zM66 44h1v1h-1zM100 44h1v1h-1zM104 44h1v1h-1zM107 44h1v1h-1zM31 45h1v1h-1zM66 45h1v1h-1zM23 46h1v1h-1zM30 46h2v1h-2zM44 46h1v1h-1zM50 46h1v1h-1zM61 46h1v1h-1zM66 46h1v1h-1zM44 47h1v1h-1zM47 47h1v1h-1zM50 47h1v1h-1zM43 48h1v1h-1zM50 48h1v1h-1zM60 48h1v1h-1zM65 48h1v1h-1zM74 48h1v1h-1zM105 48h1v1h-1zM31 49h1v1h-1zM37 49h1v1h-1zM83 49h1v1h-1zM59 50h1v1h-1zM82 50h2v1h-2zM28 51h1v1h-1zM32 51h1v1h-1zM57 51h1v1h-1zM66 51h1v1h-1zM82 51h1v1h-1zM66 52h1v1h-1zM117 52h1v1h-1zM40 53h1v1h-1zM51 53h1v1h-1zM88 53h1v1h-1zM16 54h1v1h-1zM38 54h1v1h-1zM63 54h1v1h-1zM69 54h1v1h-1zM81 54h2v1h-2zM36 55h1v1h-1zM38 55h1v1h-1zM51 55h1v1h-1zM68 55h1v1h-1zM81 55h2v1h-2zM100 55h1v1h-1zM56 57h2v1h-2zM72 57h1v1h-1zM115 57h1v1h-1zM70 58h1v1h-1zM58 59h1v1h-1zM61 59h1v1h-1zM66 59h1v1h-1zM102 59h1v1h-1zM59 60h2v1h-2zM105 60h1v1h-1zM38 61h1v1h-1zM62 61h1v1h-1zM75 61h1v1h-1zM106 61h1v1h-1zM127 61h1v1h-1zM31 62h1v1h-1zM38 62h1v1h-1zM44 62h1v1h-1zM106 62h2v1h-2zM128 62h1v1h-1zM31 63h1v1h-1zM37 63h2v1h-2zM43 63h1v1h-1zM90 63h1v1h-1zM110 63h1v1h-1zM115 63h1v1h-1zM129 63h1v1h-1zM26 64h1v1h-1zM42 64h1v1h-1zM107 64h1v1h-1zM114 64h1v1h-1zM27 65h1v1h-1zM88 65h1v1h-1zM27 66h3v1h-3zM74 66h1v1h-1zM95 66h1v1h-1zM101 66h1v1h-1zM104 66h1v1h-1zM117 66h1v1h-1zM74 67h1v1h-1zM121 67h1v1h-1zM124 68h1v1h-1zM23 69h1v1h-1zM127 69h1v1h-1zM72 70h1v1h-1zM125 70h1v1h-1zM13 71h1v1h-1zM74 71h1v1h-1zM60 73h1v1h-1zM61 74h1v1h-1zM40 78h1v1h-1zM46 78h1v1h-1zM49 78h1v1h-1z"/>
<path fill="#e08b3b" d="M44 2h1v1h-1zM55 2h1v1h-1zM40 7h1v1h-1zM48 7h2v1h-2zM48 9h1v1h-1zM56 9h1v1h-1zM37 10h1v1h-1zM55 11h2v1h-2zM60 11h1v1h-1zM39 12h1v1h-1zM63 12h1v1h-1zM60 13h1v1h-1zM49 14h1v1h-1zM59 14h1v1h-1zM62 14h1v1h-1zM67 14h1v1h-1zM61 15h1v1h-1zM53 16h1v1h-1zM63 16h1v1h-1zM66 16h1v1h-1zM31 17h1v1h-1zM28 20h1v1h-1zM35 20h1v1h-1zM33 21h1v1h-1zM57 21h1v1h-1zM26 22h1v1h-1zM66 22h1v1h-1zM67 23h1v1h-1zM25 24h1v1h-1zM31 24h1v1h-1zM59 24h1v1h-1zM67 24h1v1h-1zM33 25h1v1h-1zM53 27h1v1h-1zM64 28h2v1h-2zM43 29h1v1h-1zM65 29h1v1h-1zM29 30h1v1h-1zM65 30h2v1h-2zM94 30h1v1h-1zM28 31h1v1h-1zM31 32h1v1h-1zM75 32h1v1h-1zM87 32h3v1h-3zM86 33h2v1h-2zM61 34h1v1h-1zM94 34h2v1h-2zM101 34h1v1h-1zM34 36h2v1h-2zM24 37h1v1h-1zM34 37h1v1h-1zM72 38h1v1h-1zM101 38h1v1h-1zM63 39h1v1h-1zM71 39h1v1h-1zM21 41h1v1h-1zM59 41h1v1h-1zM64 41h1v1h-1zM72 41h1v1h-1zM30 42h1v1h-1zM36 42h1v1h-1zM59 42h1v1h-1zM96 42h1v1h-1zM56 43h1v1h-1zM70 43h1v1h-1zM34 44h1v1h-1zM55 44h1v1h-1zM61 44h1v1h-1zM70 44h1v1h-1zM76 44h1v1h-1zM29 45h1v1h-1zM37 45h1v1h-1zM60 45h1v1h-1zM33 46h1v1h-1zM59 46h1v1h-1zM73 47h1v1h-1zM32 48h1v1h-1zM56 48h1v1h-1zM93 48h1v1h-1zM103 48h1v1h-1zM57 49h1v1h-1zM61 49h1v1h-1zM69 49h1v1h-1zM74 49h1v1h-1zM94 49h1v1h-1zM104 49h1v1h-1zM95 50h2v1h-2zM65 51h1v1h-1zM96 52h1v1h-1zM99 52h1v1h-1zM92 53h1v1h-1zM20 54h1v1h-1zM92 54h1v1h-1zM104 54h1v1h-1zM25 55h1v1h-1zM24 56h1v1h-1zM26 57h1v1h-1zM50 58h1v1h-1zM74 58h1v1h-1zM110 59h1v1h-1zM119 59h1v1h-1zM23 60h4v1h-4zM45 60h1v1h-1zM110 60h1v1h-1zM120 60h1v1h-1zM124 60h1v1h-1zM65 61h1v1h-1zM108 61h1v1h-1zM110 61h1v1h-1zM20 62h1v1h-1zM28 62h1v1h-1zM65 62h1v1h-1zM70 62h1v1h-1zM91 62h1v1h-1zM108 62h1v1h-1zM122 62h2v1h-2zM19 63h1v1h-1zM64 63h1v1h-1zM102 63h1v1h-1zM127 63h1v1h-1zM8 64h1v1h-1zM23 64h1v1h-1zM54 64h3v1h-3zM66 64h1v1h-1zM115 64h1v1h-1zM122 64h1v1h-1zM15 65h3v1h-3zM20 65h1v1h-1zM52 65h1v1h-1zM126 65h1v1h-1zM15 66h3v1h-3zM50 66h3v1h-3zM115 66h1v1h-1zM120 66h1v1h-1zM122 66h1v1h-1zM48 67h6v1h-6zM61 67h1v1h-1zM70 67h1v1h-1zM48 68h5v1h-5zM55 68h1v1h-1zM67 68h1v1h-1zM71 68h1v1h-1zM123 68h1v1h-1zM4 69h1v1h-1zM50 69h3v1h-3zM59 69h1v1h-1zM52 70h1v1h-1zM74 70h1v1h-1zM121 70h1v1h-1zM18 71h1v1h-1zM36 71h1v1h-1zM52 71h1v1h-1zM40 72h1v1h-1zM55 73h1v1h-1zM8 74h1v1h-1zM13 74h1v1h-1zM15 74h1v1h-1zM36 76h1v1h-1zM50 76h1v1h-1zM42 77h1v1h-1z"/>
<path fill="#e69443" d="M45 2h1v1h-1zM50 2h1v1h-1zM42 7h1v1h-1zM50 7h1v1h-1zM63 7h1v1h-1zM37 8h1v1h-1zM46 8h1v1h-1zM55 8h7v1h-7zM40 9h1v1h-1zM42 9h1v1h-1zM61 9h1v1h-1zM64 9h1v1h-1zM62 10h1v1h-1zM44 11h1v1h-1zM34 12h1v1h-1zM65 12h1v1h-1zM33 13h1v1h-1zM39 13h1v1h-1zM62 13h1v1h-1zM66 14h1v1h-1zM32 16h1v1h-1zM43 18h1v1h-1zM40 19h1v1h-1zM29 20h1v1h-1zM55 21h1v1h-1zM58 22h2v1h-2zM67 22h1v1h-1zM59 23h1v1h-1zM24 24h1v1h-1zM29 24h1v1h-1zM65 25h1v1h-1zM57 27h1v1h-1zM27 28h1v1h-1zM53 28h1v1h-1zM72 28h1v1h-1zM27 29h1v1h-1zM53 29h1v1h-1zM69 29h1v1h-1zM92 29h1v1h-1zM57 30h1v1h-1zM87 30h1v1h-1zM33 31h1v1h-1zM54 31h1v1h-1zM56 31h1v1h-1zM96 31h1v1h-1zM90 32h1v1h-1zM23 33h1v1h-1zM35 33h1v1h-1zM95 33h1v1h-1zM29 34h1v1h-1zM35 34h1v1h-1zM97 34h4v1h-4zM34 35h1v1h-1zM100 35h2v1h-2zM73 36h1v1h-1zM97 36h1v1h-1zM103 36h1v1h-1zM99 37h1v1h-1zM104 37h1v1h-1zM23 38h1v1h-1zM75 38h1v1h-1zM97 39h5v1h-5zM59 40h1v1h-1zM24 41h1v1h-1zM57 41h1v1h-1zM20 42h1v1h-1zM87 42h1v1h-1zM30 43h1v1h-1zM65 43h2v1h-2zM96 43h1v1h-1zM23 44h1v1h-1zM71 44h1v1h-1zM22 45h1v1h-1zM71 45h1v1h-1zM91 45h2v1h-2zM98 45h2v1h-2zM28 46h1v1h-1zM93 46h1v1h-1zM33 47h1v1h-1zM101 47h1v1h-1zM95 49h1v1h-1zM103 49h1v1h-1zM44 50h1v1h-1zM48 50h1v1h-1zM56 50h1v1h-1zM106 50h1v1h-1zM98 51h1v1h-1zM91 52h1v1h-1zM20 53h1v1h-1zM102 53h1v1h-1zM106 55h1v1h-1zM23 56h1v1h-1zM43 56h1v1h-1zM107 56h1v1h-1zM107 57h3v1h-3zM17 58h1v1h-1zM39 58h1v1h-1zM108 58h2v1h-2zM119 58h1v1h-1zM44 59h1v1h-1zM73 59h1v1h-1zM120 59h2v1h-2zM13 60h1v1h-1zM20 60h3v1h-3zM37 60h1v1h-1zM71 60h1v1h-1zM98 60h2v1h-2zM108 60h1v1h-1zM21 61h2v1h-2zM29 61h1v1h-1zM35 61h2v1h-2zM69 61h1v1h-1zM100 61h1v1h-1zM118 61h1v1h-1zM121 61h1v1h-1zM59 62h1v1h-1zM69 62h1v1h-1zM109 62h1v1h-1zM126 62h1v1h-1zM30 63h1v1h-1zM87 63h1v1h-1zM118 63h1v1h-1zM122 63h1v1h-1zM16 64h1v1h-1zM53 64h1v1h-1zM74 64h1v1h-1zM19 65h1v1h-1zM23 65h1v1h-1zM50 65h1v1h-1zM57 65h3v1h-3zM68 65h1v1h-1zM14 66h1v1h-1zM20 66h1v1h-1zM23 66h1v1h-1zM48 66h2v1h-2zM57 66h4v1h-4zM69 66h1v1h-1zM98 66h1v1h-1zM16 67h2v1h-2zM21 67h1v1h-1zM60 67h1v1h-1zM118 67h1v1h-1zM122 67h1v1h-1zM127 67h1v1h-1zM5 68h1v1h-1zM22 68h1v1h-1zM118 68h1v1h-1zM127 68h1v1h-1zM49 69h1v1h-1zM55 69h1v1h-1zM122 69h1v1h-1zM51 70h1v1h-1zM61 70h1v1h-1zM76 70h2v1h-2zM41 71h2v1h-2zM54 71h1v1h-1zM10 72h1v1h-1zM52 72h1v1h-1zM3 73h1v1h-1z"/>
<path fill="#efa356" d="M46 2h1v1h-1zM43 3h1v1h-1zM50 3h2v1h-2zM56 3h1v1h-1zM55 4h1v1h-1zM60 4h1v1h-1zM40 5h1v1h-1zM40 6h1v1h-1zM47 7h1v1h-1zM51 7h2v1h-2zM60 7h2v1h-2zM47 8h1v1h-1zM37 9h1v1h-1zM57 9h1v1h-1zM40 11h1v1h-1zM40 13h1v1h-1zM68 13h1v1h-1zM50 15h1v1h-1zM67 15h1v1h-1zM52 16h1v1h-1zM32 17h1v1h-1zM34 17h1v1h-1zM41 17h1v1h-1zM50 18h1v1h-1zM67 18h1v1h-1zM45 19h1v1h-1zM53 19h1v1h-1zM54 20h1v1h-1zM46 21h1v1h-1zM68 21h1v1h-1zM35 23h1v1h-1zM69 23h1v1h-1zM66 24h1v1h-1zM35 25h1v1h-1zM70 25h1v1h-1zM40 27h1v1h-1zM43 27h1v1h-1zM32 28h1v1h-1zM41 28h2v1h-2zM64 29h1v1h-1zM73 29h1v1h-1zM84 29h1v1h-1zM26 30h1v1h-1zM54 30h3v1h-3zM67 30h1v1h-1zM25 31h1v1h-1zM31 31h2v1h-2zM86 31h1v1h-1zM91 31h1v1h-1zM95 31h1v1h-1zM30 32h1v1h-1zM64 32h1v1h-1zM95 32h1v1h-1zM97 32h1v1h-1zM28 34h1v1h-1zM46 34h1v1h-1zM27 36h1v1h-1zM62 37h1v1h-1zM98 37h1v1h-1zM63 38h1v1h-1zM96 38h4v1h-4zM59 39h1v1h-1zM64 39h1v1h-1zM72 39h1v1h-1zM96 39h1v1h-1zM88 40h1v1h-1zM60 41h1v1h-1zM24 42h1v1h-1zM23 43h1v1h-1zM95 43h1v1h-1zM29 44h1v1h-1zM59 44h1v1h-1zM88 44h1v1h-1zM96 44h1v1h-1zM28 45h1v1h-1zM58 45h2v1h-2zM90 45h1v1h-1zM97 45h1v1h-1zM27 46h1v1h-1zM72 46h1v1h-1zM86 46h1v1h-1zM94 46h1v1h-1zM98 46h1v1h-1zM88 47h1v1h-1zM95 47h1v1h-1zM99 47h1v1h-1zM57 48h1v1h-1zM63 48h1v1h-1zM69 48h1v1h-1zM88 48h1v1h-1zM91 48h1v1h-1zM100 48h1v1h-1zM91 49h1v1h-1zM101 49h1v1h-1zM98 50h1v1h-1zM105 50h1v1h-1zM99 51h1v1h-1zM101 52h2v1h-2zM105 52h2v1h-2zM106 53h1v1h-1zM41 54h1v1h-1zM105 54h1v1h-1zM23 55h1v1h-1zM107 55h1v1h-1zM110 55h1v1h-1zM39 56h1v1h-1zM46 56h1v1h-1zM19 57h1v1h-1zM118 57h1v1h-1zM123 58h1v1h-1zM36 59h1v1h-1zM92 59h1v1h-1zM95 59h1v1h-1zM108 59h1v1h-1zM123 59h3v1h-3zM36 60h1v1h-1zM42 60h1v1h-1zM96 60h1v1h-1zM91 61h2v1h-2zM39 62h1v1h-1zM58 62h1v1h-1zM66 62h3v1h-3zM89 62h1v1h-1zM48 63h1v1h-1zM52 63h1v1h-1zM67 63h1v1h-1zM117 63h1v1h-1zM125 63h1v1h-1zM51 64h1v1h-1zM58 64h1v1h-1zM68 64h1v1h-1zM117 64h1v1h-1zM126 64h1v1h-1zM12 65h2v1h-2zM48 65h1v1h-1zM60 65h1v1h-1zM65 65h1v1h-1zM69 65h1v1h-1zM92 65h1v1h-1zM12 66h2v1h-2zM19 66h1v1h-1zM24 66h1v1h-1zM47 66h1v1h-1zM62 66h1v1h-1zM70 66h1v1h-1zM127 66h1v1h-1zM14 67h1v1h-1zM20 67h1v1h-1zM24 67h2v1h-2zM46 67h1v1h-1zM63 67h1v1h-1zM71 67h1v1h-1zM4 68h1v1h-1zM8 68h2v1h-2zM25 68h1v1h-1zM37 68h1v1h-1zM60 68h1v1h-1zM64 68h1v1h-1zM72 68h1v1h-1zM122 68h1v1h-1zM7 69h1v1h-1zM9 69h1v1h-1zM46 69h1v1h-1zM61 69h1v1h-1zM22 70h1v1h-1zM37 70h1v1h-1zM48 70h1v1h-1zM35 71h1v1h-1zM17 72h1v1h-1zM36 72h1v1h-1zM46 72h1v1h-1zM56 73h1v1h-1zM51 74h1v1h-1zM50 75h1v1h-1z"/>
<path fill="#fac07b" d="M47 2h2v1h-2zM53 2h2v1h-2zM44 3h5v1h-5zM53 3h2v1h-2zM58 3h1v1h-1zM49 4h1v1h-1zM53 4h2v1h-2zM57 4h3v1h-3zM50 5h1v1h-1zM56 5h2v1h-2zM45 6h1v1h-1zM44 7h3v1h-3zM42 8h1v1h-1zM58 9h2v1h-2zM60 10h2v1h-2zM41 11h2v1h-2zM35 12h1v1h-1zM40 12h1v1h-1zM34 13h2v1h-2zM34 14h1v1h-1zM33 16h1v1h-1zM58 16h1v1h-1zM33 17h1v1h-1zM33 18h1v1h-1zM41 18h1v1h-1zM32 19h1v1h-1zM46 19h6v1h-6zM32 20h1v1h-1zM45 20h8v1h-8zM69 20h1v1h-1zM31 21h1v1h-1zM44 21h2v1h-2zM52 21h3v1h-3zM30 22h1v1h-1zM43 22h2v1h-2zM54 22h2v1h-2zM42 23h2v1h-2zM54 23h1v1h-1zM34 24h1v1h-1zM41 24h3v1h-3zM54 24h2v1h-2zM34 25h1v1h-1zM41 25h3v1h-3zM55 25h1v1h-1zM34 26h1v1h-1zM40 26h1v1h-1zM66 26h1v1h-1zM66 27h1v1h-1zM33 28h1v1h-1zM67 28h1v1h-1zM32 29h1v1h-1zM67 29h2v1h-2zM31 30h1v1h-1zM68 30h2v1h-2zM29 31h2v1h-2zM69 31h1v1h-1zM28 32h2v1h-2zM34 32h1v1h-1zM28 33h1v1h-1zM33 33h1v1h-1zM27 34h1v1h-1zM33 34h1v1h-1zM32 35h2v1h-2zM44 35h1v1h-1zM32 36h2v1h-2zM45 36h1v1h-1zM63 36h1v1h-1zM33 37h1v1h-1zM46 37h3v1h-3zM63 37h2v1h-2zM92 37h3v1h-3zM33 38h1v1h-1zM64 38h2v1h-2zM90 38h4v1h-4zM65 39h2v1h-2zM89 39h4v1h-4zM66 40h1v1h-1zM89 40h3v1h-3zM61 41h1v1h-1zM66 41h2v1h-2zM88 41h3v1h-3zM88 42h2v1h-2zM96 46h1v1h-1zM101 50h2v1h-2zM46 54h1v1h-1zM46 55h1v1h-1zM45 56h1v1h-1zM20 58h1v1h-1zM19 59h1v1h-1zM42 59h1v1h-1zM15 60h2v1h-2zM90 60h2v1h-2zM13 61h3v1h-3zM89 61h2v1h-2zM10 62h5v1h-5zM11 63h3v1h-3zM49 64h1v1h-1zM91 64h1v1h-1zM96 64h2v1h-2zM7 66h2v1h-2zM43 66h2v1h-2zM5 67h3v1h-3zM65 67h1v1h-1zM6 68h2v1h-2zM10 68h4v1h-4zM38 68h4v1h-4zM5 69h2v1h-2zM10 69h2v1h-2zM37 69h6v1h-6zM4 70h2v1h-2zM9 70h2v1h-2zM14 70h2v1h-2zM35 70h1v1h-1zM39 70h6v1h-6zM4 71h1v1h-1zM8 71h2v1h-2zM14 71h2v1h-2zM34 71h1v1h-1zM38 71h2v1h-2zM3 72h1v1h-1zM7 72h2v1h-2zM13 72h3v1h-3zM33 72h1v1h-1zM37 72h2v1h-2zM7 73h1v1h-1zM13 73h1v1h-1zM36 73h2v1h-2zM42 73h1v1h-1zM48 73h2v1h-2zM57 73h1v1h-1zM35 74h2v1h-2zM41 74h2v1h-2zM47 74h3v1h-3zM35 75h1v1h-1zM40 75h2v1h-2zM46 75h4v1h-4zM40 76h1v1h-1zM46 76h1v1h-1z"/>
<path fill="#ec9e4e" d="M49 2h1v1h-1zM42 3h1v1h-1zM59 3h1v1h-1zM39 6h1v1h-1zM41 6h2v1h-2zM47 6h3v1h-3zM38 7h2v1h-2zM57 7h3v1h-3zM41 8h1v1h-1zM43 8h1v1h-1zM48 8h1v1h-1zM53 8h2v1h-2zM63 8h1v1h-1zM35 9h1v1h-1zM63 9h1v1h-1zM33 10h1v1h-1zM36 10h1v1h-1zM41 10h3v1h-3zM56 10h1v1h-1zM48 17h6v1h-6zM52 18h2v1h-2zM31 19h1v1h-1zM69 19h1v1h-1zM33 20h1v1h-1zM67 20h1v1h-1zM32 22h1v1h-1zM35 22h1v1h-1zM68 22h1v1h-1zM25 23h2v1h-2zM41 23h1v1h-1zM30 24h1v1h-1zM44 26h1v1h-1zM65 26h1v1h-1zM67 26h1v1h-1zM43 28h1v1h-1zM42 29h1v1h-1zM54 29h1v1h-1zM66 29h1v1h-1zM90 29h1v1h-1zM25 30h1v1h-1zM33 30h1v1h-1zM82 30h2v1h-2zM55 31h1v1h-1zM67 31h1v1h-1zM87 31h4v1h-4zM24 32h1v1h-1zM85 32h2v1h-2zM94 32h1v1h-1zM64 33h1v1h-1zM68 33h1v1h-1zM97 33h2v1h-2zM28 35h1v1h-1zM64 35h1v1h-1zM61 36h1v1h-1zM60 37h2v1h-2zM74 37h1v1h-1zM61 38h1v1h-1zM100 38h1v1h-1zM72 40h1v1h-1zM25 41h1v1h-1zM94 41h1v1h-1zM57 42h1v1h-1zM60 42h1v1h-1zM67 42h1v1h-1zM94 42h1v1h-1zM75 43h1v1h-1zM92 43h1v1h-1zM28 44h1v1h-1zM91 44h1v1h-1zM27 45h1v1h-1zM93 45h1v1h-1zM90 46h1v1h-1zM92 46h1v1h-1zM99 46h1v1h-1zM90 47h2v1h-2zM100 47h1v1h-1zM95 48h1v1h-1zM101 48h1v1h-1zM56 49h1v1h-1zM96 49h1v1h-1zM102 49h1v1h-1zM55 50h1v1h-1zM64 50h1v1h-1zM44 51h1v1h-1zM87 51h1v1h-1zM109 51h1v1h-1zM43 52h1v1h-1zM47 52h2v1h-2zM21 53h1v1h-1zM42 53h1v1h-1zM46 53h1v1h-1zM48 53h1v1h-1zM103 53h1v1h-1zM21 54h2v1h-2zM45 54h1v1h-1zM110 54h1v1h-1zM20 55h1v1h-1zM40 55h1v1h-1zM47 55h1v1h-1zM21 56h2v1h-2zM108 56h1v1h-1zM38 57h1v1h-1zM110 57h1v1h-1zM26 58h1v1h-1zM45 58h1v1h-1zM121 58h1v1h-1zM26 59h1v1h-1zM96 59h1v1h-1zM122 59h1v1h-1zM19 60h1v1h-1zM27 60h1v1h-1zM97 60h1v1h-1zM121 60h1v1h-1zM20 61h1v1h-1zM28 61h1v1h-1zM70 61h1v1h-1zM99 61h1v1h-1zM109 61h1v1h-1zM125 61h1v1h-1zM18 62h1v1h-1zM95 62h1v1h-1zM100 62h1v1h-1zM124 62h1v1h-1zM17 63h1v1h-1zM62 63h1v1h-1zM75 63h1v1h-1zM9 64h1v1h-1zM30 64h1v1h-1zM64 64h1v1h-1zM76 64h1v1h-1zM90 64h1v1h-1zM93 64h1v1h-1zM100 64h1v1h-1zM120 64h1v1h-1zM123 64h1v1h-1zM14 65h1v1h-1zM30 65h1v1h-1zM49 65h1v1h-1zM115 65h1v1h-1zM61 66h1v1h-1zM114 66h1v1h-1zM119 66h1v1h-1zM15 67h1v1h-1zM59 67h1v1h-1zM66 67h1v1h-1zM21 68h1v1h-1zM45 68h3v1h-3zM54 68h1v1h-1zM59 68h1v1h-1zM13 69h1v1h-1zM19 69h1v1h-1zM47 69h2v1h-2zM53 69h1v1h-1zM73 69h1v1h-1zM6 70h1v1h-1zM20 70h1v1h-1zM69 71h1v1h-1zM47 72h1v1h-1zM55 72h1v1h-1zM16 73h1v1h-1zM37 75h1v1h-1z"/>
<path fill="#a24c1a" d="M57 2h1v1h-1zM36 6h1v1h-1zM64 6h1v1h-1zM67 9h1v1h-1zM46 10h1v1h-1zM38 12h1v1h-1zM57 12h2v1h-2zM56 13h1v1h-1zM31 14h1v1h-1zM55 14h2v1h-2zM36 15h1v1h-1zM40 15h1v1h-1zM36 16h1v1h-1zM64 16h1v1h-1zM70 16h1v1h-1zM30 17h1v1h-1zM36 17h1v1h-1zM55 17h1v1h-1zM65 17h1v1h-1zM65 18h1v1h-1zM28 19h1v1h-1zM63 19h1v1h-1zM65 20h1v1h-1zM24 23h1v1h-1zM64 23h1v1h-1zM72 24h1v1h-1zM25 26h1v1h-1zM63 26h1v1h-1zM25 27h1v1h-1zM59 27h1v1h-1zM37 28h1v1h-1zM50 29h1v1h-1zM94 29h1v1h-1zM45 30h1v1h-1zM50 30h1v1h-1zM51 31h1v1h-1zM57 31h1v1h-1zM45 32h1v1h-1zM70 32h1v1h-1zM70 33h1v1h-1zM76 33h1v1h-1zM38 34h1v1h-1zM59 34h1v1h-1zM74 34h1v1h-1zM105 34h1v1h-1zM38 35h1v1h-1zM59 35h1v1h-1zM69 35h1v1h-1zM74 35h1v1h-1zM77 35h1v1h-1zM53 36h1v1h-1zM66 36h3v1h-3zM77 36h1v1h-1zM45 37h1v1h-1zM66 37h2v1h-2zM78 37h1v1h-1zM43 38h1v1h-1zM51 38h1v1h-1zM57 38h1v1h-1zM78 38h1v1h-1zM88 38h1v1h-1zM77 39h1v1h-1zM87 39h1v1h-1zM109 39h1v1h-1zM56 40h1v1h-1zM78 40h2v1h-2zM87 40h1v1h-1zM75 41h1v1h-1zM78 41h1v1h-1zM86 41h1v1h-1zM109 41h1v1h-1zM80 42h1v1h-1zM44 43h3v1h-3zM79 43h1v1h-1zM85 43h1v1h-1zM26 44h1v1h-1zM44 44h1v1h-1zM47 44h4v1h-4zM73 44h1v1h-1zM77 44h1v1h-1zM20 45h1v1h-1zM25 45h1v1h-1zM39 45h1v1h-1zM48 45h1v1h-1zM50 45h2v1h-2zM73 45h1v1h-1zM80 45h1v1h-1zM102 45h2v1h-2zM19 46h1v1h-1zM51 46h1v1h-1zM80 46h1v1h-1zM109 46h1v1h-1zM51 47h1v1h-1zM80 47h1v1h-1zM104 47h1v1h-1zM107 47h1v1h-1zM110 47h1v1h-1zM36 48h1v1h-1zM39 48h1v1h-1zM80 48h1v1h-1zM84 48h1v1h-1zM111 48h1v1h-1zM26 49h1v1h-1zM30 49h1v1h-1zM35 49h2v1h-2zM53 49h1v1h-1zM84 49h1v1h-1zM106 49h1v1h-1zM31 50h1v1h-1zM36 50h1v1h-1zM38 50h1v1h-1zM75 50h1v1h-1zM21 51h1v1h-1zM37 51h1v1h-1zM71 51h2v1h-2zM75 51h1v1h-1zM79 51h1v1h-1zM29 52h1v1h-1zM33 52h1v1h-1zM52 52h1v1h-1zM57 52h1v1h-1zM68 52h1v1h-1zM79 52h1v1h-1zM84 52h1v1h-1zM112 52h1v1h-1zM26 53h1v1h-1zM57 53h1v1h-1zM66 53h1v1h-1zM79 53h1v1h-1zM87 53h1v1h-1zM109 53h1v1h-1zM113 53h1v1h-1zM37 54h1v1h-1zM54 54h1v1h-1zM56 54h2v1h-2zM59 54h1v1h-1zM62 54h1v1h-1zM79 54h1v1h-1zM89 54h1v1h-1zM29 55h2v1h-2zM50 55h1v1h-1zM55 55h1v1h-1zM63 55h1v1h-1zM79 55h2v1h-2zM83 55h1v1h-1zM86 55h1v1h-1zM91 55h1v1h-1zM114 55h1v1h-1zM120 55h1v1h-1zM64 56h1v1h-1zM79 56h2v1h-2zM82 56h1v1h-1zM85 56h1v1h-1zM93 56h1v1h-1zM97 56h1v1h-1zM101 56h1v1h-1zM113 56h1v1h-1zM58 57h1v1h-1zM71 57h1v1h-1zM80 57h1v1h-1zM35 58h1v1h-1zM59 58h2v1h-2zM69 58h1v1h-1zM80 58h2v1h-2zM93 58h1v1h-1zM95 58h2v1h-2zM99 58h2v1h-2zM102 58h1v1h-1zM114 58h1v1h-1zM34 59h2v1h-2zM52 59h2v1h-2zM62 59h1v1h-1zM80 59h2v1h-2zM114 59h1v1h-1zM34 60h2v1h-2zM54 60h2v1h-2zM83 60h2v1h-2zM114 60h1v1h-1zM32 61h2v1h-2zM60 61h1v1h-1zM82 61h2v1h-2zM115 61h1v1h-1zM32 62h1v1h-1zM46 62h1v1h-1zM115 62h1v1h-1zM32 63h1v1h-1zM44 63h1v1h-1zM114 63h1v1h-1zM32 64h1v1h-1zM38 64h1v1h-1zM45 64h1v1h-1zM41 65h2v1h-2zM102 65h1v1h-1zM105 65h1v1h-1zM108 65h1v1h-1zM26 66h1v1h-1zM39 66h1v1h-1zM26 67h1v1h-1zM75 67h1v1h-1zM100 67h1v1h-1zM116 67h2v1h-2zM130 67h1v1h-1zM28 68h1v1h-1zM75 68h1v1h-1zM96 68h2v1h-2zM112 68h2v1h-2zM120 68h1v1h-1zM128 68h1v1h-1zM32 69h1v1h-1zM78 69h1v1h-1zM23 70h1v1h-1zM26 70h1v1h-1zM71 70h1v1h-1zM7 71h1v1h-1zM24 71h1v1h-1zM58 71h1v1h-1zM24 72h1v1h-1zM46 74h1v1h-1zM60 74h1v1h-1zM33 75h1v1h-1zM38 76h1v1h-1zM52 77h1v1h-1zM43 78h1v1h-1z"/>
<path fill="#713110" d="M40 3h1v1h-1zM37 5h1v1h-1zM35 6h1v1h-1zM35 7h1v1h-1zM67 11h1v1h-1zM68 12h1v1h-1zM38 14h1v1h-1zM30 16h1v1h-1zM37 17h2v1h-2zM71 17h1v1h-1zM71 19h1v1h-1zM26 20h1v1h-1zM37 20h1v1h-1zM63 20h1v1h-1zM37 21h1v1h-1zM64 21h1v1h-1zM71 21h1v1h-1zM47 22h1v1h-1zM49 22h1v1h-1zM38 23h1v1h-1zM63 24h1v1h-1zM24 26h1v1h-1zM23 27h2v1h-2zM62 27h1v1h-1zM74 27h1v1h-1zM87 27h1v1h-1zM24 29h1v1h-1zM38 29h1v1h-1zM59 29h1v1h-1zM75 29h1v1h-1zM38 30h1v1h-1zM46 30h1v1h-1zM61 30h1v1h-1zM75 30h1v1h-1zM22 31h1v1h-1zM38 31h1v1h-1zM43 31h1v1h-1zM22 32h1v1h-1zM40 32h1v1h-1zM48 32h1v1h-1zM50 32h1v1h-1zM42 34h1v1h-1zM56 34h1v1h-1zM77 34h1v1h-1zM39 35h1v1h-1zM58 35h1v1h-1zM75 35h2v1h-2zM75 36h1v1h-1zM107 36h1v1h-1zM42 37h1v1h-1zM57 37h1v1h-1zM107 37h1v1h-1zM77 38h1v1h-1zM42 39h1v1h-1zM53 39h1v1h-1zM42 40h2v1h-2zM49 40h1v1h-1zM52 40h2v1h-2zM42 41h1v1h-1zM45 41h1v1h-1zM50 41h4v1h-4zM47 42h4v1h-4zM52 42h2v1h-2zM78 43h1v1h-1zM42 45h1v1h-1zM52 45h1v1h-1zM40 46h1v1h-1zM52 46h2v1h-2zM77 46h1v1h-1zM40 47h1v1h-1zM76 47h1v1h-1zM25 48h1v1h-1zM76 48h1v1h-1zM21 49h1v1h-1zM24 49h2v1h-2zM76 49h2v1h-2zM108 49h2v1h-2zM21 50h3v1h-3zM25 50h1v1h-1zM53 50h1v1h-1zM76 50h1v1h-1zM86 50h1v1h-1zM20 51h1v1h-1zM23 51h1v1h-1zM35 51h1v1h-1zM77 51h1v1h-1zM86 51h1v1h-1zM75 52h2v1h-2zM86 52h1v1h-1zM111 52h1v1h-1zM118 52h2v1h-2zM27 53h3v1h-3zM32 53h2v1h-2zM37 53h1v1h-1zM71 53h1v1h-1zM110 53h2v1h-2zM75 54h2v1h-2zM90 54h1v1h-1zM17 55h1v1h-1zM56 55h1v1h-1zM58 55h1v1h-1zM66 55h1v1h-1zM74 55h3v1h-3zM88 55h1v1h-1zM94 55h1v1h-1zM113 55h1v1h-1zM121 55h1v1h-1zM123 55h1v1h-1zM60 56h1v1h-1zM62 56h1v1h-1zM76 56h1v1h-1zM89 56h1v1h-1zM92 56h1v1h-1zM112 56h1v1h-1zM59 57h2v1h-2zM69 57h1v1h-1zM75 57h2v1h-2zM89 57h1v1h-1zM100 57h2v1h-2zM113 57h1v1h-1zM76 58h2v1h-2zM88 58h1v1h-1zM90 58h1v1h-1zM127 58h1v1h-1zM77 59h1v1h-1zM87 59h2v1h-2zM78 60h1v1h-1zM86 60h2v1h-2zM34 61h1v1h-1zM56 61h1v1h-1zM58 61h1v1h-1zM79 61h1v1h-1zM86 61h2v1h-2zM34 62h1v1h-1zM48 62h2v1h-2zM78 62h2v1h-2zM85 62h2v1h-2zM34 63h1v1h-1zM46 63h1v1h-1zM78 63h3v1h-3zM84 63h3v1h-3zM111 63h1v1h-1zM5 64h1v1h-1zM44 64h1v1h-1zM79 64h5v1h-5zM86 64h1v1h-1zM112 64h1v1h-1zM35 65h2v1h-2zM78 65h1v1h-1zM86 65h1v1h-1zM94 65h1v1h-1zM106 65h1v1h-1zM109 65h1v1h-1zM111 65h1v1h-1zM36 66h1v1h-1zM41 66h1v1h-1zM107 66h1v1h-1zM110 66h1v1h-1zM36 67h1v1h-1zM88 67h1v1h-1zM93 68h1v1h-1zM99 68h1v1h-1zM129 68h1v1h-1zM27 69h1v1h-1zM115 69h1v1h-1zM30 70h2v1h-2zM79 70h1v1h-1zM116 70h3v1h-3zM124 70h1v1h-1zM23 71h1v1h-1zM28 71h2v1h-2zM78 71h1v1h-1zM118 71h1v1h-1zM1 73h2v1h-2zM19 73h1v1h-1zM32 73h1v1h-1zM58 73h1v1h-1zM11 74h1v1h-1zM58 74h1v1h-1zM4 75h1v1h-1zM54 75h1v1h-1zM8 76h3v1h-3zM14 76h3v1h-3zM45 76h1v1h-1zM38 77h1v1h-1zM44 77h1v1h-1zM51 78h1v1h-1zM41 79h1v1h-1zM43 79h1v1h-1zM49 79h1v1h-1z"/>
<path fill="#d1752a" d="M41 3h1v1h-1zM39 5h1v1h-1zM38 6h1v1h-1zM37 7h1v1h-1zM36 8h1v1h-1zM49 8h1v1h-1zM39 9h1v1h-1zM36 12h1v1h-1zM64 12h1v1h-1zM51 13h1v1h-1zM61 13h1v1h-1zM64 13h1v1h-1zM32 14h1v1h-1zM65 14h1v1h-1zM70 14h1v1h-1zM32 15h1v1h-1zM54 17h1v1h-1zM45 18h1v1h-1zM39 21h1v1h-1zM42 21h1v1h-1zM66 21h1v1h-1zM28 22h1v1h-1zM40 22h2v1h-2zM56 22h1v1h-1zM60 22h1v1h-1zM71 23h2v1h-2zM58 24h1v1h-1zM60 24h1v1h-1zM31 25h1v1h-1zM59 25h1v1h-1zM27 26h1v1h-1zM30 26h1v1h-1zM69 26h1v1h-1zM64 27h1v1h-1zM71 28h1v1h-1zM71 29h1v1h-1zM82 29h1v1h-1zM93 29h1v1h-1zM66 31h1v1h-1zM65 32h1v1h-1zM81 32h1v1h-1zM25 33h1v1h-1zM72 33h1v1h-1zM80 33h2v1h-2zM102 33h1v1h-1zM72 34h1v1h-1zM81 34h1v1h-1zM91 34h1v1h-1zM25 35h1v1h-1zM71 35h1v1h-1zM81 35h1v1h-1zM21 36h1v1h-1zM24 36h1v1h-1zM29 36h1v1h-1zM37 36h1v1h-1zM71 36h1v1h-1zM81 36h6v1h-6zM35 37h1v1h-1zM70 37h1v1h-1zM82 37h3v1h-3zM24 38h1v1h-1zM104 38h1v1h-1zM24 39h1v1h-1zM62 39h1v1h-1zM21 40h1v1h-1zM23 40h1v1h-1zM32 40h1v1h-1zM63 40h1v1h-1zM107 40h1v1h-1zM26 41h1v1h-1zM30 41h1v1h-1zM37 41h1v1h-1zM71 41h1v1h-1zM70 42h1v1h-1zM69 43h1v1h-1zM98 43h1v1h-1zM27 44h1v1h-1zM35 44h1v1h-1zM54 45h1v1h-1zM68 45h1v1h-1zM100 45h1v1h-1zM21 46h1v1h-1zM37 46h1v1h-1zM67 46h1v1h-1zM73 46h1v1h-1zM32 47h1v1h-1zM53 47h1v1h-1zM67 47h1v1h-1zM27 48h1v1h-1zM48 48h1v1h-1zM61 48h1v1h-1zM72 48h1v1h-1zM27 49h1v1h-1zM32 49h2v1h-2zM55 49h1v1h-1zM60 49h1v1h-1zM62 49h1v1h-1zM105 49h1v1h-1zM63 50h1v1h-1zM73 50h1v1h-1zM90 50h1v1h-1zM61 51h1v1h-1zM69 51h1v1h-1zM94 51h1v1h-1zM21 52h1v1h-1zM60 52h1v1h-1zM41 53h1v1h-1zM44 53h1v1h-1zM60 53h1v1h-1zM64 53h1v1h-1zM117 53h1v1h-1zM25 54h1v1h-1zM117 54h2v1h-2zM121 54h1v1h-1zM26 55h1v1h-1zM27 56h1v1h-1zM41 56h2v1h-2zM51 56h1v1h-1zM41 57h1v1h-1zM52 57h1v1h-1zM106 57h1v1h-1zM29 58h1v1h-1zM33 58h1v1h-1zM40 58h1v1h-1zM72 58h1v1h-1zM116 58h1v1h-1zM39 59h1v1h-1zM49 59h1v1h-1zM70 59h1v1h-1zM99 59h2v1h-2zM107 59h1v1h-1zM29 60h1v1h-1zM49 60h1v1h-1zM67 60h1v1h-1zM73 60h2v1h-2zM103 60h1v1h-1zM107 60h1v1h-1zM118 60h1v1h-1zM24 61h2v1h-2zM103 61h1v1h-1zM107 61h1v1h-1zM126 61h1v1h-1zM30 62h1v1h-1zM64 62h1v1h-1zM75 62h1v1h-1zM23 63h1v1h-1zM28 63h1v1h-1zM96 63h1v1h-1zM103 63h3v1h-3zM109 63h1v1h-1zM119 63h1v1h-1zM39 64h2v1h-2zM104 64h1v1h-1zM119 64h1v1h-1zM121 64h1v1h-1zM124 64h1v1h-1zM75 65h1v1h-1zM93 65h1v1h-1zM125 65h1v1h-1zM116 66h1v1h-1zM67 67h1v1h-1zM124 67h1v1h-1zM56 68h2v1h-2zM70 68h1v1h-1zM24 69h1v1h-1zM58 69h1v1h-1zM63 69h1v1h-1zM19 70h1v1h-1zM63 70h1v1h-1zM73 70h1v1h-1zM53 72h1v1h-1zM65 73h1v1h-1zM51 76h1v1h-1zM49 77h1v1h-1z"/>
<path fill="#f1a95d" d="M55 3h1v1h-1zM57 3h1v1h-1zM51 4h1v1h-1zM56 4h1v1h-1zM41 5h4v1h-4zM46 5h3v1h-3zM51 5h1v1h-1zM43 6h1v1h-1zM46 6h1v1h-1zM51 6h2v1h-2zM54 6h1v1h-1zM62 6h1v1h-1zM53 7h4v1h-4zM62 7h1v1h-1zM62 8h1v1h-1zM62 11h1v1h-1zM41 12h1v1h-1zM66 13h2v1h-2zM49 15h1v1h-1zM34 16h1v1h-1zM48 16h4v1h-4zM68 16h1v1h-1zM40 17h1v1h-1zM67 17h1v1h-1zM49 18h1v1h-1zM51 18h1v1h-1zM32 21h1v1h-1zM58 21h1v1h-1zM35 24h1v1h-1zM33 26h1v1h-1zM54 28h1v1h-1zM55 29h1v1h-1zM85 29h2v1h-2zM35 30h1v1h-1zM88 30h1v1h-1zM92 30h1v1h-1zM34 31h1v1h-1zM63 31h2v1h-2zM68 31h1v1h-1zM92 31h1v1h-1zM96 32h1v1h-1zM29 33h1v1h-1zM62 33h1v1h-1zM45 34h1v1h-1zM46 35h1v1h-1zM48 35h2v1h-2zM51 35h1v1h-1zM47 36h1v1h-1zM64 36h1v1h-1zM93 36h4v1h-4zM32 37h1v1h-1zM34 38h1v1h-1zM95 38h1v1h-1zM33 39h2v1h-2zM94 39h2v1h-2zM33 40h1v1h-1zM65 40h1v1h-1zM93 40h2v1h-2zM74 42h1v1h-1zM92 42h1v1h-1zM93 44h1v1h-1zM95 44h1v1h-1zM96 45h1v1h-1zM58 46h1v1h-1zM97 46h1v1h-1zM92 47h1v1h-1zM73 48h1v1h-1zM92 48h1v1h-1zM92 49h1v1h-1zM97 49h1v1h-1zM70 50h1v1h-1zM87 50h2v1h-2zM99 50h1v1h-1zM100 51h1v1h-1zM104 52h1v1h-1zM104 53h2v1h-2zM109 54h1v1h-1zM44 56h1v1h-1zM24 57h1v1h-1zM43 57h1v1h-1zM122 57h1v1h-1zM18 58h1v1h-1zM23 58h3v1h-3zM38 58h1v1h-1zM44 58h1v1h-1zM111 58h2v1h-2zM122 58h1v1h-1zM20 59h3v1h-3zM41 59h1v1h-1zM43 59h1v1h-1zM93 59h2v1h-2zM112 59h1v1h-1zM18 60h1v1h-1zM123 60h1v1h-1zM98 61h1v1h-1zM9 62h1v1h-1zM16 62h2v1h-2zM15 63h2v1h-2zM49 63h3v1h-3zM53 63h2v1h-2zM73 63h1v1h-1zM88 63h1v1h-1zM13 64h3v1h-3zM63 64h1v1h-1zM75 64h1v1h-1zM87 64h1v1h-1zM116 64h1v1h-1zM11 66h1v1h-1zM96 66h1v1h-1zM45 67h1v1h-1zM123 67h1v1h-1zM3 68h1v1h-1zM16 68h1v1h-1zM43 68h2v1h-2zM14 69h1v1h-1zM22 69h1v1h-1zM54 69h1v1h-1zM38 70h1v1h-1zM49 70h2v1h-2zM54 70h1v1h-1zM56 70h1v1h-1zM62 70h1v1h-1zM43 71h1v1h-1zM50 71h2v1h-2zM63 71h1v1h-1zM21 72h1v1h-1zM39 72h1v1h-1zM51 72h1v1h-1zM56 72h1v1h-1zM64 72h2v1h-2zM15 73h1v1h-1zM33 73h1v1h-1zM51 73h1v1h-1zM41 76h2v1h-2z"/>
<path fill="#ba6121" d="M61 3h1v1h-1zM34 9h1v1h-1zM45 9h1v1h-1zM45 10h1v1h-1zM66 11h1v1h-1zM37 12h1v1h-1zM58 13h1v1h-1zM47 14h2v1h-2zM54 14h1v1h-1zM58 14h1v1h-1zM54 15h3v1h-3zM60 15h1v1h-1zM27 20h1v1h-1zM26 21h1v1h-1zM39 23h2v1h-2zM73 23h1v1h-1zM32 25h1v1h-1zM58 25h1v1h-1zM64 25h1v1h-1zM72 25h1v1h-1zM59 26h1v1h-1zM30 27h1v1h-1zM52 27h1v1h-1zM73 27h1v1h-1zM30 28h1v1h-1zM46 28h1v1h-1zM29 29h1v1h-1zM62 29h1v1h-1zM70 29h1v1h-1zM44 30h1v1h-1zM51 30h1v1h-1zM96 30h1v1h-1zM98 31h1v1h-1zM73 32h2v1h-2zM47 33h1v1h-1zM66 33h1v1h-1zM69 33h1v1h-1zM37 34h1v1h-1zM66 34h1v1h-1zM26 36h1v1h-1zM90 36h1v1h-1zM80 37h1v1h-1zM88 37h1v1h-1zM106 37h1v1h-1zM22 38h1v1h-1zM80 38h1v1h-1zM28 39h1v1h-1zM31 39h1v1h-1zM35 39h1v1h-1zM57 39h1v1h-1zM74 39h1v1h-1zM81 39h1v1h-1zM85 39h2v1h-2zM88 39h1v1h-1zM28 40h1v1h-1zM35 40h1v1h-1zM38 40h1v1h-1zM81 40h1v1h-1zM84 40h1v1h-1zM34 41h2v1h-2zM84 41h1v1h-1zM87 41h1v1h-1zM26 42h1v1h-1zM34 42h1v1h-1zM40 42h1v1h-1zM69 42h1v1h-1zM83 42h1v1h-1zM100 43h3v1h-3zM20 44h1v1h-1zM62 44h2v1h-2zM74 44h1v1h-1zM109 44h1v1h-1zM26 45h1v1h-1zM49 45h1v1h-1zM61 45h1v1h-1zM65 45h1v1h-1zM75 45h1v1h-1zM110 45h1v1h-1zM32 46h1v1h-1zM55 46h2v1h-2zM102 46h1v1h-1zM31 47h1v1h-1zM60 47h1v1h-1zM66 47h1v1h-1zM47 48h1v1h-1zM59 48h1v1h-1zM66 48h1v1h-1zM71 48h1v1h-1zM65 49h1v1h-1zM27 50h2v1h-2zM51 50h1v1h-1zM72 50h1v1h-1zM33 51h1v1h-1zM51 51h1v1h-1zM68 51h1v1h-1zM73 51h1v1h-1zM89 51h1v1h-1zM41 52h1v1h-1zM55 52h1v1h-1zM73 52h1v1h-1zM93 52h2v1h-2zM109 52h1v1h-1zM61 53h1v1h-1zM64 54h1v1h-1zM68 54h1v1h-1zM91 54h1v1h-1zM93 54h1v1h-1zM95 54h1v1h-1zM115 54h1v1h-1zM28 55h1v1h-1zM49 55h1v1h-1zM61 55h1v1h-1zM96 55h1v1h-1zM101 55h1v1h-1zM117 55h1v1h-1zM119 55h1v1h-1zM30 56h1v1h-1zM54 56h1v1h-1zM104 56h1v1h-1zM116 56h1v1h-1zM121 56h1v1h-1zM30 57h3v1h-3zM31 58h2v1h-2zM36 58h1v1h-1zM47 58h1v1h-1zM49 58h1v1h-1zM31 59h2v1h-2zM51 59h1v1h-1zM55 59h1v1h-1zM101 59h1v1h-1zM105 59h1v1h-1zM115 59h1v1h-1zM106 60h1v1h-1zM111 60h1v1h-1zM128 60h1v1h-1zM30 61h1v1h-1zM74 61h1v1h-1zM76 61h2v1h-2zM112 61h1v1h-1zM35 62h1v1h-1zM37 62h1v1h-1zM43 62h1v1h-1zM107 63h1v1h-1zM129 65h2v1h-2zM75 66h1v1h-1zM111 66h1v1h-1zM130 66h1v1h-1zM90 67h1v1h-1zM96 67h1v1h-1zM2 68h1v1h-1zM31 68h1v1h-1zM77 69h1v1h-1zM118 69h1v1h-1zM57 70h2v1h-2zM75 71h2v1h-2zM120 71h1v1h-1zM70 72h1v1h-1zM20 73h1v1h-1zM35 73h1v1h-1zM4 74h1v1h-1zM17 74h1v1h-1zM8 75h2v1h-2zM16 75h1v1h-1zM37 77h1v1h-1zM43 77h1v1h-1zM50 77h1v1h-1z"/>
<path fill="#863e16" d="M39 4h1v1h-1zM38 5h1v1h-1zM35 8h1v1h-1zM38 13h1v1h-1zM46 13h1v1h-1zM37 14h1v1h-1zM37 15h1v1h-1zM57 15h1v1h-1zM37 16h1v1h-1zM64 18h1v1h-1zM37 22h2v1h-2zM48 22h1v1h-1zM64 22h1v1h-1zM37 23h1v1h-1zM50 23h2v1h-2zM62 23h1v1h-1zM37 24h1v1h-1zM37 25h1v1h-1zM39 25h1v1h-1zM63 25h1v1h-1zM37 26h1v1h-1zM60 27h1v1h-1zM85 27h2v1h-2zM88 27h1v1h-1zM59 28h1v1h-1zM74 28h1v1h-1zM49 29h1v1h-1zM58 29h1v1h-1zM77 31h1v1h-1zM47 32h1v1h-1zM49 32h1v1h-1zM60 32h1v1h-1zM41 33h1v1h-1zM59 33h1v1h-1zM76 34h1v1h-1zM41 35h1v1h-1zM54 35h2v1h-2zM39 36h1v1h-1zM54 36h1v1h-1zM76 36h1v1h-1zM106 36h1v1h-1zM21 37h2v1h-2zM39 37h1v1h-1zM76 37h2v1h-2zM108 38h1v1h-1zM51 39h1v1h-1zM40 40h1v1h-1zM76 40h2v1h-2zM43 41h2v1h-2zM76 41h1v1h-1zM43 42h1v1h-1zM45 42h2v1h-2zM51 42h1v1h-1zM78 42h1v1h-1zM43 43h1v1h-1zM47 43h3v1h-3zM51 43h2v1h-2zM54 43h1v1h-1zM77 43h1v1h-1zM39 44h1v1h-1zM51 44h2v1h-2zM40 45h1v1h-1zM42 46h1v1h-1zM74 46h3v1h-3zM75 47h1v1h-1zM77 47h1v1h-1zM85 47h1v1h-1zM105 47h2v1h-2zM20 48h1v1h-1zM24 48h1v1h-1zM75 48h1v1h-1zM77 48h1v1h-1zM108 48h2v1h-2zM39 49h1v1h-1zM41 49h1v1h-1zM54 49h1v1h-1zM86 49h1v1h-1zM107 49h1v1h-1zM110 49h1v1h-1zM26 50h1v1h-1zM35 50h1v1h-1zM40 50h1v1h-1zM54 50h1v1h-1zM78 50h1v1h-1zM109 50h1v1h-1zM111 50h1v1h-1zM25 51h1v1h-1zM30 51h1v1h-1zM54 51h1v1h-1zM116 51h1v1h-1zM30 52h1v1h-1zM34 52h1v1h-1zM53 52h1v1h-1zM77 52h1v1h-1zM76 53h2v1h-2zM86 53h1v1h-1zM29 54h2v1h-2zM34 54h2v1h-2zM66 54h1v1h-1zM73 54h1v1h-1zM77 54h1v1h-1zM87 54h2v1h-2zM18 55h1v1h-1zM59 55h1v1h-1zM62 55h1v1h-1zM71 55h1v1h-1zM77 55h1v1h-1zM87 55h1v1h-1zM16 56h1v1h-1zM57 56h2v1h-2zM63 56h1v1h-1zM68 56h1v1h-1zM77 56h1v1h-1zM83 56h2v1h-2zM87 56h2v1h-2zM122 56h1v1h-1zM66 57h1v1h-1zM77 57h1v1h-1zM83 57h1v1h-1zM88 57h1v1h-1zM97 57h1v1h-1zM99 57h1v1h-1zM124 57h1v1h-1zM64 58h1v1h-1zM66 58h1v1h-1zM78 58h1v1h-1zM92 58h1v1h-1zM78 59h2v1h-2zM82 59h1v1h-1zM86 59h1v1h-1zM127 59h1v1h-1zM11 60h1v1h-1zM81 60h2v1h-2zM85 60h1v1h-1zM57 61h1v1h-1zM78 61h1v1h-1zM80 61h2v1h-2zM84 61h2v1h-2zM7 62h1v1h-1zM33 62h1v1h-1zM77 62h1v1h-1zM80 62h2v1h-2zM84 62h1v1h-1zM112 62h1v1h-1zM6 63h1v1h-1zM35 63h1v1h-1zM81 63h3v1h-3zM113 63h1v1h-1zM34 64h1v1h-1zM37 64h1v1h-1zM43 64h1v1h-1zM110 64h1v1h-1zM37 65h1v1h-1zM4 66h1v1h-1zM35 66h1v1h-1zM38 66h1v1h-1zM40 66h1v1h-1zM103 66h1v1h-1zM34 67h2v1h-2zM87 67h1v1h-1zM103 67h2v1h-2zM129 67h1v1h-1zM27 68h1v1h-1zM34 68h1v1h-1zM98 68h1v1h-1zM111 68h1v1h-1zM116 68h1v1h-1zM125 69h1v1h-1zM28 70h1v1h-1zM32 70h1v1h-1zM119 70h1v1h-1zM71 71h1v1h-1zM2 72h1v1h-1zM6 72h1v1h-1zM19 72h1v1h-1zM31 72h1v1h-1zM71 72h1v1h-1zM69 73h1v1h-1zM34 74h1v1h-1zM59 74h1v1h-1zM17 75h1v1h-1zM39 75h1v1h-1zM45 75h1v1h-1zM57 75h1v1h-1zM13 76h1v1h-1zM53 76h1v1h-1zM55 76h1v1h-1zM36 78h2v1h-2zM50 78h1v1h-1zM42 79h1v1h-1z"/>
<path fill="#e8994b" d="M41 4h1v1h-1zM38 8h1v1h-1zM53 9h1v1h-1zM64 10h1v1h-1zM35 11h2v1h-2zM63 13h1v1h-1zM33 14h1v1h-1zM51 15h1v1h-1zM66 15h1v1h-1zM47 17h1v1h-1zM31 18h1v1h-1zM46 18h1v1h-1zM30 19h1v1h-1zM41 19h2v1h-2zM67 19h1v1h-1zM30 20h1v1h-1zM40 20h2v1h-2zM28 21h1v1h-1zM35 21h1v1h-1zM67 21h1v1h-1zM27 22h1v1h-1zM34 22h1v1h-1zM29 23h1v1h-1zM31 23h1v1h-1zM56 23h1v1h-1zM66 23h1v1h-1zM69 24h1v1h-1zM71 26h1v1h-1zM44 27h1v1h-1zM26 29h1v1h-1zM34 29h1v1h-1zM41 29h1v1h-1zM89 29h1v1h-1zM91 29h1v1h-1zM74 30h1v1h-1zM24 31h1v1h-1zM74 31h1v1h-1zM85 31h1v1h-1zM62 32h1v1h-1zM84 32h1v1h-1zM91 32h3v1h-3zM30 33h1v1h-1zM94 33h1v1h-1zM96 33h1v1h-1zM64 34h1v1h-1zM21 35h1v1h-1zM31 35h1v1h-1zM47 35h1v1h-1zM73 35h1v1h-1zM28 36h1v1h-1zM28 37h1v1h-1zM90 37h1v1h-1zM89 38h1v1h-1zM73 40h1v1h-1zM95 40h2v1h-2zM65 41h1v1h-1zM29 43h1v1h-1zM22 44h1v1h-1zM92 44h1v1h-1zM87 45h2v1h-2zM91 46h1v1h-1zM27 47h1v1h-1zM69 47h1v1h-1zM94 47h1v1h-1zM90 48h1v1h-1zM102 48h1v1h-1zM64 49h1v1h-1zM73 49h1v1h-1zM89 49h1v1h-1zM74 50h1v1h-1zM92 50h1v1h-1zM97 50h1v1h-1zM43 51h1v1h-1zM47 51h2v1h-2zM92 51h1v1h-1zM100 52h1v1h-1zM107 52h1v1h-1zM22 53h1v1h-1zM107 53h1v1h-1zM23 54h1v1h-1zM48 54h1v1h-1zM24 55h1v1h-1zM17 56h1v1h-1zM40 56h1v1h-1zM25 57h1v1h-1zM39 57h1v1h-1zM42 57h1v1h-1zM46 57h1v1h-1zM51 57h1v1h-1zM120 58h1v1h-1zM23 59h3v1h-3zM27 59h1v1h-1zM74 59h1v1h-1zM28 60h1v1h-1zM40 60h1v1h-1zM43 60h1v1h-1zM70 60h1v1h-1zM122 61h1v1h-1zM19 62h1v1h-1zM29 62h1v1h-1zM41 62h1v1h-1zM71 62h1v1h-1zM96 62h1v1h-1zM117 62h2v1h-2zM7 63h1v1h-1zM18 63h1v1h-1zM29 63h1v1h-1zM39 63h2v1h-2zM66 63h1v1h-1zM72 63h1v1h-1zM94 63h1v1h-1zM101 63h1v1h-1zM52 64h1v1h-1zM57 64h1v1h-1zM67 64h1v1h-1zM7 65h1v1h-1zM18 65h1v1h-1zM76 65h2v1h-2zM95 65h1v1h-1zM99 65h1v1h-1zM116 65h1v1h-1zM120 65h1v1h-1zM18 66h1v1h-1zM72 66h1v1h-1zM113 66h1v1h-1zM18 67h1v1h-1zM58 67h1v1h-1zM62 67h1v1h-1zM119 67h1v1h-1zM17 68h2v1h-2zM53 68h1v1h-1zM61 68h1v1h-1zM63 68h1v1h-1zM18 69h1v1h-1zM25 69h1v1h-1zM35 69h1v1h-1zM65 69h1v1h-1zM75 69h1v1h-1zM12 70h1v1h-1zM18 70h1v1h-1zM25 70h1v1h-1zM66 70h1v1h-1zM11 71h1v1h-1zM37 71h1v1h-1zM62 71h1v1h-1zM34 72h1v1h-1zM45 73h1v1h-1zM47 73h1v1h-1zM38 74h1v1h-1zM44 74h1v1h-1zM46 77h3v1h-3z"/>
<path fill="#aa541c" d="M62 4h1v1h-1zM32 10h1v1h-1zM48 11h2v1h-2zM37 13h1v1h-1zM48 13h1v1h-1zM64 15h1v1h-1zM69 15h1v1h-1zM41 16h1v1h-1zM46 16h1v1h-1zM42 17h1v1h-1zM36 19h1v1h-1zM58 20h1v1h-1zM36 21h1v1h-1zM38 21h1v1h-1zM61 24h1v1h-1zM64 24h1v1h-1zM25 25h1v1h-1zM45 25h1v1h-1zM63 27h1v1h-1zM51 28h1v1h-1zM58 28h1v1h-1zM37 29h1v1h-1zM46 29h1v1h-1zM37 30h1v1h-1zM70 30h1v1h-1zM77 30h1v1h-1zM23 31h1v1h-1zM37 31h1v1h-1zM76 31h1v1h-1zM52 32h1v1h-1zM50 33h1v1h-1zM65 34h1v1h-1zM69 34h2v1h-2zM65 35h1v1h-1zM68 35h1v1h-1zM78 35h1v1h-1zM44 36h1v1h-1zM78 36h1v1h-1zM58 37h1v1h-1zM68 37h1v1h-1zM30 38h1v1h-1zM67 38h2v1h-2zM79 38h1v1h-1zM21 39h1v1h-1zM30 39h1v1h-1zM39 39h1v1h-1zM48 39h3v1h-3zM79 39h1v1h-1zM68 40h1v1h-1zM80 40h1v1h-1zM86 40h1v1h-1zM20 41h1v1h-1zM40 41h1v1h-1zM68 41h1v1h-1zM85 41h1v1h-1zM28 42h1v1h-1zM38 42h2v1h-2zM63 42h1v1h-1zM68 42h1v1h-1zM76 42h1v1h-1zM85 42h1v1h-1zM26 43h2v1h-2zM40 43h1v1h-1zM63 43h1v1h-1zM80 43h1v1h-1zM83 43h2v1h-2zM25 44h1v1h-1zM80 44h1v1h-1zM82 44h3v1h-3zM108 44h1v1h-1zM110 44h1v1h-1zM44 45h1v1h-1zM47 45h1v1h-1zM81 45h4v1h-4zM108 45h2v1h-2zM111 45h1v1h-1zM43 46h1v1h-1zM47 46h1v1h-1zM81 46h2v1h-2zM105 46h1v1h-1zM107 46h1v1h-1zM23 47h1v1h-1zM30 47h1v1h-1zM36 47h1v1h-1zM39 47h1v1h-1zM65 47h1v1h-1zM74 47h1v1h-1zM111 47h1v1h-1zM23 48h1v1h-1zM30 48h1v1h-1zM35 48h1v1h-1zM51 48h1v1h-1zM53 48h2v1h-2zM23 49h1v1h-1zM29 49h1v1h-1zM42 49h1v1h-1zM66 49h1v1h-1zM80 49h2v1h-2zM29 50h1v1h-1zM34 50h1v1h-1zM42 50h1v1h-1zM58 50h1v1h-1zM66 50h2v1h-2zM71 50h1v1h-1zM80 50h2v1h-2zM84 50h1v1h-1zM108 50h1v1h-1zM22 51h1v1h-1zM41 51h1v1h-1zM58 51h1v1h-1zM67 51h1v1h-1zM80 51h1v1h-1zM84 51h1v1h-1zM113 51h1v1h-1zM115 51h1v1h-1zM24 52h1v1h-1zM83 52h1v1h-1zM52 53h1v1h-1zM62 53h1v1h-1zM70 53h1v1h-1zM83 53h1v1h-1zM89 53h2v1h-2zM94 53h1v1h-1zM27 54h1v1h-1zM51 54h1v1h-1zM53 54h1v1h-1zM65 54h1v1h-1zM83 54h1v1h-1zM114 54h1v1h-1zM122 54h1v1h-1zM34 55h1v1h-1zM54 55h1v1h-1zM60 55h1v1h-1zM64 55h1v1h-1zM67 55h1v1h-1zM99 55h1v1h-1zM115 55h2v1h-2zM55 56h1v1h-1zM86 56h1v1h-1zM102 56h1v1h-1zM114 56h2v1h-2zM49 57h1v1h-1zM55 57h1v1h-1zM81 57h1v1h-1zM85 57h2v1h-2zM104 57h1v1h-1zM114 57h1v1h-1zM53 58h2v1h-2zM84 58h2v1h-2zM94 58h1v1h-1zM97 58h1v1h-1zM103 58h3v1h-3zM14 59h1v1h-1zM48 59h1v1h-1zM84 59h1v1h-1zM12 60h1v1h-1zM33 60h1v1h-1zM47 60h1v1h-1zM50 60h1v1h-1zM47 61h1v1h-1zM61 61h1v1h-1zM106 63h1v1h-1zM89 64h1v1h-1zM95 64h1v1h-1zM103 65h1v1h-1zM112 65h1v1h-1zM129 66h1v1h-1zM33 67h1v1h-1zM99 67h1v1h-1zM30 68h1v1h-1zM114 68h1v1h-1zM29 69h1v1h-1zM31 69h1v1h-1zM69 69h1v1h-1zM24 70h1v1h-1zM121 71h1v1h-1zM1 72h1v1h-1zM61 72h1v1h-1zM68 72h2v1h-2zM11 73h1v1h-1zM63 73h1v1h-1zM3 74h1v1h-1zM13 75h1v1h-1zM53 75h1v1h-1zM44 76h1v1h-1zM51 77h1v1h-1z"/>
<path fill="#e28f42" d="M62 5h1v1h-1zM41 7h1v1h-1zM44 8h1v1h-1zM51 8h2v1h-2zM62 9h1v1h-1zM65 9h1v1h-1zM63 10h1v1h-1zM35 14h1v1h-1zM39 14h1v1h-1zM50 14h1v1h-1zM48 15h1v1h-1zM52 15h1v1h-1zM68 15h1v1h-1zM62 17h1v1h-1zM34 18h1v1h-1zM40 18h1v1h-1zM54 18h1v1h-1zM54 19h1v1h-1zM57 20h1v1h-1zM40 21h1v1h-1zM53 22h1v1h-1zM70 22h1v1h-1zM60 23h1v1h-1zM68 23h1v1h-1zM70 23h1v1h-1zM30 25h1v1h-1zM35 26h1v1h-1zM65 27h1v1h-1zM71 27h2v1h-2zM40 28h1v1h-1zM86 28h2v1h-2zM35 29h1v1h-1zM83 29h1v1h-1zM87 29h2v1h-2zM34 30h1v1h-1zM53 30h1v1h-1zM73 30h1v1h-1zM84 30h3v1h-3zM93 30h1v1h-1zM67 32h1v1h-1zM69 32h1v1h-1zM93 33h1v1h-1zM99 33h1v1h-1zM47 34h4v1h-4zM68 34h1v1h-1zM96 34h1v1h-1zM35 35h1v1h-1zM61 35h1v1h-1zM102 35h1v1h-1zM92 36h1v1h-1zM102 36h1v1h-1zM36 37h1v1h-1zM65 37h1v1h-1zM100 37h1v1h-1zM32 38h1v1h-1zM59 38h1v1h-1zM23 39h1v1h-1zM22 40h1v1h-1zM25 40h1v1h-1zM64 40h1v1h-1zM97 40h1v1h-1zM33 41h1v1h-1zM36 41h1v1h-1zM95 41h1v1h-1zM65 42h1v1h-1zM95 42h1v1h-1zM36 43h1v1h-1zM59 43h1v1h-1zM97 43h1v1h-1zM75 44h1v1h-1zM97 44h2v1h-2zM34 45h1v1h-1zM72 45h1v1h-1zM57 47h2v1h-2zM93 47h1v1h-1zM94 48h1v1h-1zM45 49h1v1h-1zM45 50h1v1h-1zM60 50h2v1h-2zM60 51h1v1h-1zM88 51h1v1h-1zM95 51h1v1h-1zM50 52h1v1h-1zM92 52h1v1h-1zM95 52h1v1h-1zM43 53h1v1h-1zM96 53h1v1h-1zM101 53h1v1h-1zM42 54h1v1h-1zM111 54h1v1h-1zM41 55h1v1h-1zM44 55h1v1h-1zM117 57h1v1h-1zM27 58h1v1h-1zM41 58h1v1h-1zM110 58h1v1h-1zM124 58h1v1h-1zM15 59h1v1h-1zM38 59h1v1h-1zM45 59h1v1h-1zM97 59h1v1h-1zM42 61h1v1h-1zM68 61h1v1h-1zM101 61h1v1h-1zM74 62h1v1h-1zM101 62h2v1h-2zM119 62h1v1h-1zM63 63h1v1h-1zM70 63h1v1h-1zM120 63h1v1h-1zM17 64h1v1h-1zM65 64h1v1h-1zM71 64h1v1h-1zM101 64h1v1h-1zM31 65h1v1h-1zM43 65h1v1h-1zM51 65h1v1h-1zM114 65h1v1h-1zM31 66h1v1h-1zM42 66h1v1h-1zM66 66h1v1h-1zM90 66h2v1h-2zM47 67h1v1h-1zM60 69h1v1h-1zM64 69h1v1h-1zM76 69h1v1h-1zM121 69h1v1h-1zM34 70h1v1h-1zM75 70h1v1h-1zM120 70h1v1h-1zM20 71h1v1h-1zM68 71h1v1h-1zM4 73h1v1h-1zM17 73h1v1h-1zM39 73h1v1h-1zM52 73h1v1h-1zM66 73h1v1h-1zM9 74h1v1h-1zM14 74h1v1h-1zM41 77h1v1h-1z"/>
<path fill="#da7f35" d="M63 6h1v1h-1zM45 8h1v1h-1zM50 8h1v1h-1zM38 9h1v1h-1zM54 9h1v1h-1zM55 10h1v1h-1zM61 12h1v1h-1zM52 14h1v1h-1zM68 14h1v1h-1zM47 16h1v1h-1zM63 17h1v1h-1zM69 17h1v1h-1zM30 18h1v1h-1zM39 18h1v1h-1zM39 19h1v1h-1zM43 19h2v1h-2zM39 20h1v1h-1zM42 20h2v1h-2zM27 21h1v1h-1zM29 21h1v1h-1zM61 21h1v1h-1zM27 23h1v1h-1zM69 25h1v1h-1zM71 25h1v1h-1zM45 26h1v1h-1zM68 26h1v1h-1zM28 27h1v1h-1zM32 27h1v1h-1zM68 27h1v1h-1zM70 27h1v1h-1zM26 31h1v1h-1zM82 31h1v1h-1zM97 31h1v1h-1zM23 32h1v1h-1zM25 32h1v1h-1zM32 32h1v1h-1zM82 32h1v1h-1zM99 32h1v1h-1zM44 33h3v1h-3zM82 33h1v1h-1zM89 33h3v1h-3zM51 34h1v1h-1zM87 34h1v1h-1zM93 34h1v1h-1zM22 35h1v1h-1zM29 35h1v1h-1zM36 35h1v1h-1zM72 35h1v1h-1zM98 35h1v1h-1zM103 35h1v1h-1zM31 36h1v1h-1zM98 36h1v1h-1zM20 37h1v1h-1zM103 37h1v1h-1zM36 38h1v1h-1zM107 39h1v1h-1zM34 40h1v1h-1zM71 40h1v1h-1zM98 40h3v1h-3zM102 40h1v1h-1zM97 41h1v1h-1zM103 41h2v1h-2zM31 42h1v1h-1zM24 43h1v1h-1zM35 43h1v1h-1zM76 43h1v1h-1zM19 44h1v1h-1zM30 44h1v1h-1zM56 44h1v1h-1zM65 44h1v1h-1zM86 44h1v1h-1zM68 46h2v1h-2zM71 46h1v1h-1zM46 47h1v1h-1zM68 47h1v1h-1zM33 48h1v1h-1zM46 48h1v1h-1zM58 48h1v1h-1zM93 49h1v1h-1zM49 50h1v1h-1zM70 51h1v1h-1zM97 51h1v1h-1zM42 52h1v1h-1zM44 52h1v1h-1zM65 52h1v1h-1zM23 53h1v1h-1zM49 53h2v1h-2zM91 53h1v1h-1zM18 54h1v1h-1zM48 55h1v1h-1zM106 56h1v1h-1zM119 56h2v1h-2zM27 57h1v1h-1zM123 57h1v1h-1zM46 58h1v1h-1zM51 58h1v1h-1zM73 58h1v1h-1zM107 58h1v1h-1zM117 58h1v1h-1zM71 59h2v1h-2zM98 59h1v1h-1zM111 59h1v1h-1zM118 59h1v1h-1zM126 59h1v1h-1zM44 60h1v1h-1zM69 60h1v1h-1zM126 60h2v1h-2zM23 61h1v1h-1zM8 62h1v1h-1zM42 62h1v1h-1zM60 62h1v1h-1zM120 62h1v1h-1zM41 63h1v1h-1zM121 63h1v1h-1zM123 63h1v1h-1zM7 64h1v1h-1zM19 64h1v1h-1zM29 64h1v1h-1zM73 64h1v1h-1zM88 64h1v1h-1zM125 64h1v1h-1zM22 65h1v1h-1zM119 65h1v1h-1zM122 65h1v1h-1zM5 66h1v1h-1zM22 66h1v1h-1zM67 66h2v1h-2zM22 67h1v1h-1zM40 67h1v1h-1zM113 67h1v1h-1zM58 68h1v1h-1zM62 68h1v1h-1zM126 69h1v1h-1zM1 70h1v1h-1zM65 70h1v1h-1zM57 71h1v1h-1zM11 72h1v1h-1zM21 73h1v1h-1zM67 73h1v1h-1zM37 76h1v1h-1zM40 77h1v1h-1z"/>
<path fill="#d47b30" d="M64 8h1v1h-1zM43 9h1v1h-1zM47 9h1v1h-1zM51 9h1v1h-1zM55 9h1v1h-1zM53 10h1v1h-1zM42 12h1v1h-1zM50 13h1v1h-1zM59 13h1v1h-1zM40 14h1v1h-1zM53 14h1v1h-1zM46 17h1v1h-1zM44 18h1v1h-1zM62 18h2v1h-2zM66 18h1v1h-1zM70 18h1v1h-1zM55 20h1v1h-1zM61 20h1v1h-1zM41 21h1v1h-1zM33 22h1v1h-1zM57 22h1v1h-1zM32 23h2v1h-2zM58 23h1v1h-1zM33 24h1v1h-1zM23 25h1v1h-1zM29 25h1v1h-1zM68 25h1v1h-1zM72 26h1v1h-1zM45 27h1v1h-1zM26 28h1v1h-1zM28 28h1v1h-1zM31 28h1v1h-1zM70 28h1v1h-1zM44 29h1v1h-1zM72 29h1v1h-1zM27 30h1v1h-1zM42 30h1v1h-1zM52 30h1v1h-1zM79 30h1v1h-1zM62 31h1v1h-1zM75 31h1v1h-1zM80 31h1v1h-1zM53 32h1v1h-1zM100 32h1v1h-1zM31 33h1v1h-1zM61 33h1v1h-1zM101 33h1v1h-1zM24 34h2v1h-2zM31 34h1v1h-1zM36 34h1v1h-1zM82 34h3v1h-3zM88 34h3v1h-3zM92 34h1v1h-1zM60 35h1v1h-1zM67 35h1v1h-1zM82 35h8v1h-8zM94 35h1v1h-1zM91 36h1v1h-1zM100 36h2v1h-2zM59 37h1v1h-1zM101 37h2v1h-2zM66 38h1v1h-1zM102 38h2v1h-2zM105 38h2v1h-2zM25 39h1v1h-1zM36 39h2v1h-2zM103 39h2v1h-2zM106 39h1v1h-1zM57 40h1v1h-1zM103 40h2v1h-2zM31 41h2v1h-2zM98 41h1v1h-1zM102 41h1v1h-1zM105 41h1v1h-1zM25 42h1v1h-1zM32 42h1v1h-1zM35 42h1v1h-1zM56 42h1v1h-1zM75 42h1v1h-1zM97 42h1v1h-1zM104 42h2v1h-2zM19 43h2v1h-2zM31 43h1v1h-1zM37 43h1v1h-1zM105 43h1v1h-1zM58 44h1v1h-1zM99 44h1v1h-1zM33 45h1v1h-1zM38 45h1v1h-1zM55 45h1v1h-1zM38 46h1v1h-1zM46 46h1v1h-1zM54 46h1v1h-1zM63 46h1v1h-1zM87 46h1v1h-1zM45 47h1v1h-1zM62 47h1v1h-1zM86 47h1v1h-1zM62 48h1v1h-1zM68 48h1v1h-1zM44 49h1v1h-1zM48 49h2v1h-2zM90 49h1v1h-1zM43 50h1v1h-1zM47 50h1v1h-1zM65 50h1v1h-1zM93 50h2v1h-2zM49 51h2v1h-2zM55 51h1v1h-1zM46 52h1v1h-1zM49 52h1v1h-1zM98 52h1v1h-1zM45 53h1v1h-1zM95 53h1v1h-1zM99 53h2v1h-2zM108 53h1v1h-1zM19 54h1v1h-1zM40 54h1v1h-1zM49 54h1v1h-1zM97 54h1v1h-1zM120 54h1v1h-1zM97 55h1v1h-1zM104 55h1v1h-1zM26 56h1v1h-1zM38 56h1v1h-1zM118 56h1v1h-1zM17 57h1v1h-1zM28 57h1v1h-1zM40 57h1v1h-1zM28 58h1v1h-1zM28 59h1v1h-1zM46 59h1v1h-1zM117 59h1v1h-1zM68 60h1v1h-1zM75 60h1v1h-1zM101 60h2v1h-2zM119 60h1v1h-1zM125 60h1v1h-1zM26 61h1v1h-1zM37 61h1v1h-1zM43 61h1v1h-1zM45 61h1v1h-1zM64 61h1v1h-1zM102 61h1v1h-1zM104 61h1v1h-1zM117 61h1v1h-1zM119 61h2v1h-2zM22 62h2v1h-2zM27 62h1v1h-1zM50 62h1v1h-1zM103 62h2v1h-2zM110 62h1v1h-1zM20 63h3v1h-3zM76 63h1v1h-1zM89 63h1v1h-1zM128 63h1v1h-1zM6 64h1v1h-1zM20 64h3v1h-3zM72 64h1v1h-1zM118 64h1v1h-1zM21 65h1v1h-1zM117 65h1v1h-1zM25 66h1v1h-1zM30 66h1v1h-1zM99 66h1v1h-1zM112 66h1v1h-1zM126 66h1v1h-1zM23 67h1v1h-1zM31 67h1v1h-1zM69 67h1v1h-1zM114 67h1v1h-1zM74 68h1v1h-1zM56 69h1v1h-1zM62 69h1v1h-1zM116 69h2v1h-2zM13 70h1v1h-1zM60 70h1v1h-1zM1 71h1v1h-1zM53 71h1v1h-1zM61 71h1v1h-1zM18 72h1v1h-1zM20 72h1v1h-1zM41 72h1v1h-1zM54 72h1v1h-1zM46 73h1v1h-1zM56 74h1v1h-1zM43 75h1v1h-1z"/>
<path fill="#c76925" d="M44 9h1v1h-1zM46 9h1v1h-1zM49 9h2v1h-2zM66 9h1v1h-1zM48 10h1v1h-1zM54 10h1v1h-1zM50 11h1v1h-1zM53 11h2v1h-2zM59 11h1v1h-1zM50 12h4v1h-4zM55 12h1v1h-1zM60 12h1v1h-1zM32 13h1v1h-1zM49 13h1v1h-1zM52 13h2v1h-2zM39 15h1v1h-1zM55 18h1v1h-1zM71 18h1v1h-1zM56 20h1v1h-1zM60 20h1v1h-1zM56 21h1v1h-1zM39 22h1v1h-1zM61 22h1v1h-1zM57 23h1v1h-1zM61 23h1v1h-1zM27 24h2v1h-2zM32 24h1v1h-1zM27 25h2v1h-2zM57 25h1v1h-1zM26 26h1v1h-1zM28 26h2v1h-2zM26 27h1v1h-1zM69 27h1v1h-1zM36 28h1v1h-1zM69 28h1v1h-1zM85 28h1v1h-1zM88 28h1v1h-1zM45 29h1v1h-1zM74 29h1v1h-1zM28 30h1v1h-1zM71 30h1v1h-1zM27 31h1v1h-1zM73 31h1v1h-1zM78 31h2v1h-2zM26 32h1v1h-1zM79 32h2v1h-2zM26 33h1v1h-1zM49 33h1v1h-1zM65 33h1v1h-1zM79 33h1v1h-1zM60 34h1v1h-1zM24 35h1v1h-1zM30 35h1v1h-1zM37 35h1v1h-1zM80 35h1v1h-1zM93 35h1v1h-1zM104 35h1v1h-1zM72 36h1v1h-1zM74 36h1v1h-1zM80 36h1v1h-1zM88 36h2v1h-2zM105 36h1v1h-1zM23 37h1v1h-1zM25 37h1v1h-1zM29 37h1v1h-1zM72 37h1v1h-1zM85 37h3v1h-3zM25 38h1v1h-1zM27 38h3v1h-3zM58 38h1v1h-1zM81 38h6v1h-6zM27 39h1v1h-1zM32 39h1v1h-1zM70 39h1v1h-1zM82 39h3v1h-3zM27 40h1v1h-1zM31 40h1v1h-1zM62 40h1v1h-1zM70 40h1v1h-1zM105 40h2v1h-2zM62 41h1v1h-1zM107 41h1v1h-1zM22 42h1v1h-1zM62 42h1v1h-1zM64 42h1v1h-1zM98 42h5v1h-5zM34 43h1v1h-1zM55 43h1v1h-1zM58 43h1v1h-1zM99 43h1v1h-1zM103 43h2v1h-2zM106 43h1v1h-1zM109 43h1v1h-1zM64 44h1v1h-1zM68 44h2v1h-2zM106 44h1v1h-1zM19 45h1v1h-1zM23 45h1v1h-1zM35 45h2v1h-2zM56 45h2v1h-2zM64 45h1v1h-1zM70 45h1v1h-1zM36 46h1v1h-1zM22 47h1v1h-1zM29 47h1v1h-1zM49 47h1v1h-1zM61 47h1v1h-1zM70 47h1v1h-1zM22 48h1v1h-1zM26 48h1v1h-1zM28 48h1v1h-1zM31 48h1v1h-1zM37 48h2v1h-2zM67 48h1v1h-1zM43 49h1v1h-1zM50 49h1v1h-1zM67 49h2v1h-2zM72 49h1v1h-1zM32 50h1v1h-1zM57 50h1v1h-1zM62 50h1v1h-1zM46 51h1v1h-1zM59 51h1v1h-1zM93 51h1v1h-1zM45 52h1v1h-1zM61 52h1v1h-1zM90 52h1v1h-1zM115 52h1v1h-1zM24 53h1v1h-1zM59 53h1v1h-1zM63 53h1v1h-1zM65 53h1v1h-1zM115 53h1v1h-1zM43 54h2v1h-2zM116 54h1v1h-1zM19 55h1v1h-1zM52 55h2v1h-2zM98 55h1v1h-1zM102 55h2v1h-2zM28 56h1v1h-1zM34 56h2v1h-2zM53 56h1v1h-1zM105 56h1v1h-1zM117 56h1v1h-1zM29 57h1v1h-1zM16 58h1v1h-1zM52 58h1v1h-1zM57 58h1v1h-1zM106 58h1v1h-1zM115 58h1v1h-1zM40 59h1v1h-1zM69 59h1v1h-1zM116 59h1v1h-1zM117 60h1v1h-1zM44 61h1v1h-1zM63 61h1v1h-1zM25 62h2v1h-2zM62 62h2v1h-2zM25 63h2v1h-2zM27 64h2v1h-2zM41 64h1v1h-1zM29 65h1v1h-1zM40 65h1v1h-1zM104 65h1v1h-1zM128 65h1v1h-1zM77 66h1v1h-1zM68 67h1v1h-1zM91 67h1v1h-1zM98 67h1v1h-1zM126 67h1v1h-1zM23 68h1v1h-1zM36 68h1v1h-1zM121 68h1v1h-1zM71 69h1v1h-1zM123 69h1v1h-1zM12 71h1v1h-1zM22 72h1v1h-1zM60 72h1v1h-1zM62 72h1v1h-1zM66 72h1v1h-1zM61 73h1v1h-1zM68 73h1v1h-1zM33 74h1v1h-1zM14 75h2v1h-2zM36 77h1v1h-1zM41 78h1v1h-1zM47 78h1v1h-1z"/>
<path fill="#30160c" d="M43 12h2v1h-2zM42 13h4v1h-4zM41 14h5v1h-5zM41 15h1v1h-1zM43 15h3v1h-3zM58 15h2v1h-2zM42 16h1v1h-1zM45 16h1v1h-1zM57 16h1v1h-1zM59 16h2v1h-2zM56 17h6v1h-6zM56 18h1v1h-1zM58 18h4v1h-4zM57 19h2v1h-2zM60 19h1v1h-1zM24 21h1v1h-1zM47 21h5v1h-5zM46 22h1v1h-1zM50 22h3v1h-3zM45 23h5v1h-5zM52 23h2v1h-2zM45 24h9v1h-9zM46 25h8v1h-8zM46 26h7v1h-7zM39 27h1v1h-1zM47 27h5v1h-5zM39 28h1v1h-1zM48 28h3v1h-3zM40 29h1v1h-1zM48 29h1v1h-1zM40 30h2v1h-2zM47 30h2v1h-2zM58 30h1v1h-1zM41 31h2v1h-2zM44 31h7v1h-7zM58 31h1v1h-1zM42 32h2v1h-2zM51 32h1v1h-1zM56 32h2v1h-2zM42 33h2v1h-2zM52 33h5v1h-5zM43 34h1v1h-1zM52 34h3v1h-3zM43 35h1v1h-1zM52 35h1v1h-1zM43 36h1v1h-1zM51 36h2v1h-2zM44 37h1v1h-1zM50 37h2v1h-2zM45 38h6v1h-6zM19 48h1v1h-1zM19 51h1v1h-1zM16 55h1v1h-1zM84 65h1v1h-1zM82 66h4v1h-4zM89 66h1v1h-1zM94 66h1v1h-1zM80 67h2v1h-2zM86 67h1v1h-1zM89 67h1v1h-1zM94 67h1v1h-1zM102 67h1v1h-1zM106 67h3v1h-3zM79 68h1v1h-1zM87 68h4v1h-4zM94 68h2v1h-2zM101 68h5v1h-5zM130 68h1v1h-1zM80 69h1v1h-1zM89 69h13v1h-13zM111 69h1v1h-1zM129 69h1v1h-1zM80 70h1v1h-1zM115 70h1v1h-1zM128 70h1v1h-1zM0 71h1v1h-1zM31 71h2v1h-2zM79 71h1v1h-1zM117 71h1v1h-1zM125 71h3v1h-3zM26 72h5v1h-5zM118 72h1v1h-1zM122 72h1v1h-1zM6 73h1v1h-1zM12 73h1v1h-1zM24 73h2v1h-2zM71 73h1v1h-1zM1 74h2v1h-2zM6 74h1v1h-1zM12 74h1v1h-1zM19 74h1v1h-1zM22 74h2v1h-2zM69 74h1v1h-1zM2 75h2v1h-2zM6 75h1v1h-1zM12 75h1v1h-1zM19 75h4v1h-4zM31 75h1v1h-1zM58 75h2v1h-2zM3 76h5v1h-5zM11 76h2v1h-2zM17 76h3v1h-3zM32 76h1v1h-1zM57 76h1v1h-1zM6 77h12v1h-12zM33 77h2v1h-2zM39 77h1v1h-1zM45 77h1v1h-1zM54 77h3v1h-3zM11 78h1v1h-1zM34 78h2v1h-2zM39 78h1v1h-1zM45 78h1v1h-1zM53 78h1v1h-1zM35 79h5v1h-5zM44 79h2v1h-2zM51 79h2v1h-2zM37 80h15v1h-15zM40 81h9v1h-9z"/>
</svg>